<svg version="1.1" viewBox="0.0 0.0 613.0 379.0" fill="none" stroke="none" stroke-linecap="square" stroke-miterlimit="10" width="613" height="379" xmlns:xlink="http://www.w3.org/1999/xlink" xmlns="http://www.w3.org/2000/svg"><path fill="#ffffff" d="M0 0L613.0 0L613.0 379.0L0 379.0L0 0Z" fill-rule="nonzero"/><path stroke="#333333" stroke-width="1.0" stroke-linecap="butt" d="M110.5 295.5L594.5 295.5" fill-rule="nonzero"/><path fill="#eeeeee" d="M84.5 321.5L110.5 296.5L594.5 296.5L568.5 321.5Z" fill-rule="nonzero"/><path stroke="#cccccc" stroke-width="1.0" stroke-linecap="butt" d="M110.5 253.5L594.5 253.5" fill-rule="nonzero"/><path stroke="#cccccc" stroke-width="1.0" stroke-linecap="butt" d="M110.5 211.5L594.5 211.5" fill-rule="nonzero"/><path stroke="#cccccc" stroke-width="1.0" stroke-linecap="butt" d="M110.5 170.5L594.5 170.5" fill-rule="nonzero"/><path stroke="#cccccc" stroke-width="1.0" stroke-linecap="butt" d="M110.5 128.5L594.5 128.5" fill-rule="nonzero"/><path stroke="#cccccc" stroke-width="1.0" stroke-linecap="butt" d="M110.5 87.5L594.5 87.5" fill-rule="nonzero"/><clipPath id="id_0"><path d="M84.95 87.21667L594.05 87.21667L594.05 321.05L84.95 321.05L84.95 87.21667Z" clip-rule="nonzero"/></clipPath><path fill="#2b569f" clip-path="url(#id_0)" d="M308.0 122.0L308.0 295.0L287.0 316.0L287.0 143.0Z" fill-rule="nonzero"/><path fill="#689df6" clip-path="url(#id_0)" d="M287.0 143.0L206.0 143.0L227.0 122.0L308.0 122.0Z" fill-rule="nonzero"/><path stroke="#000000" stroke-width="0.0" stroke-linecap="butt" stroke-opacity="0.0" clip-path="url(#id_0)" d="M287.0 316.0L206.0 316.0L206.0 143.0L287.0 143.0Z" fill-rule="nonzero"/><path fill="#4285f4" clip-path="url(#id_0)" d="M287.0 316.0L206.0 316.0L206.0 143.0L287.0 143.0Z" fill-rule="nonzero"/><path fill="#982c22" clip-path="url(#id_0)" d="M390.0 290.0L390.0 295.0L369.0 316.0L369.0 311.0Z" fill-rule="nonzero"/><path fill="#ee695d" clip-path="url(#id_0)" d="M369.0 311.0L288.0 311.0L309.0 290.0L390.0 290.0Z" fill-rule="nonzero"/><path stroke="#000000" stroke-width="0.0" stroke-linecap="butt" stroke-opacity="0.0" clip-path="url(#id_0)" d="M369.0 316.0L288.0 316.0L288.0 311.0L369.0 311.0Z" fill-rule="nonzero"/><path fill="#ea4335" clip-path="url(#id_0)" d="M369.0 316.0L288.0 316.0L288.0 311.0L369.0 311.0Z" fill-rule="nonzero"/><path fill="#a37a03" clip-path="url(#id_0)" d="M472.0 290.0L472.0 295.0L451.0 316.0L451.0 311.0Z" fill-rule="nonzero"/><path fill="#fcc936" clip-path="url(#id_0)" d="M451.0 311.0L370.0 311.0L391.0 290.0L472.0 290.0Z" fill-rule="nonzero"/><path stroke="#000000" stroke-width="0.0" stroke-linecap="butt" stroke-opacity="0.0" clip-path="url(#id_0)" d="M451.0 316.0L370.0 316.0L370.0 311.0L451.0 311.0Z" fill-rule="nonzero"/><path fill="#fbbc04" clip-path="url(#id_0)" d="M451.0 316.0L370.0 316.0L370.0 311.0L451.0 311.0Z" fill-rule="nonzero"/><path stroke="#4285f4" stroke-width="3.0" stroke-linejoin="round" stroke-linecap="round" d="M230.6875 156.30943Q230.6875 157.76256 230.01562 158.65318Q229.35938 159.52818 228.23438 159.52818Q227.03125 159.52818 226.375 158.66881L226.3125 159.40318L225.32812 159.40318L225.32812 150.40318L226.40625 150.40318L226.40625 153.76256Q227.0625 152.95006 228.21875 152.95006Q229.375 152.95006 230.03125 153.82506Q230.6875 154.68443 230.6875 156.21568L230.6875 156.30943ZM229.60938 156.18443Q229.60938 155.07506 229.17188 154.48131Q228.75 153.87193 227.95312 153.87193Q226.875 153.87193 226.40625 154.85631L226.40625 157.60631Q226.90625 158.60631 227.95312 158.60631Q228.73438 158.60631 229.17188 157.99693Q229.60938 157.38756 229.60938 156.18443ZM236.23438 159.40318Q236.14062 159.21568 236.07812 158.73131Q235.32812 159.52818 234.28125 159.52818Q233.34375 159.52818 232.73438 158.99693Q232.14062 158.46568 232.14062 157.63756Q232.14062 156.65318 232.89062 156.10631Q233.64062 155.55943 235.01562 155.55943L236.0625 155.55943L236.0625 155.05943Q236.0625 154.49693 235.71875 154.16881Q235.39062 153.82506 234.71875 153.82506Q234.14062 153.82506 233.75 154.12193Q233.35938 154.40318 233.35938 154.82506L232.26562 154.82506Q232.26562 154.34068 232.59375 153.90318Q232.9375 153.46568 233.51562 153.21568Q234.09375 152.95006 234.78125 152.95006Q235.89062 152.95006 236.5 153.49693Q237.125 154.04381 237.15625 154.99693L237.15625 157.91881Q237.15625 158.79381 237.375 159.30943L237.375 159.40318L236.23438 159.40318ZM234.4375 158.57506Q234.95312 158.57506 235.40625 158.30943Q235.85938 158.04381 236.0625 157.62193L236.0625 156.32506L235.21875 156.32506Q233.21875 156.32506 233.21875 157.49693Q233.21875 157.99693 233.5625 158.29381Q233.90625 158.57506 234.4375 158.57506ZM243.01562 157.71568Q243.01562 157.27818 242.67188 157.04381Q242.34375 156.79381 241.51562 156.62193Q240.70312 156.45006 240.21875 156.20006Q239.73438 155.95006 239.5 155.62193Q239.28125 155.27818 239.28125 154.80943Q239.28125 154.02818 239.9375 153.49693Q240.59375 152.95006 241.625 152.95006Q242.70312 152.95006 243.35938 153.51256Q244.03125 154.05943 244.03125 154.91881L242.95312 154.91881Q242.95312 154.48131 242.5625 154.16881Q242.1875 153.84068 241.625 153.84068Q241.03125 153.84068 240.6875 154.10631Q240.35938 154.35631 240.35938 154.76256Q240.35938 155.15318 240.67188 155.35631Q240.98438 155.55943 241.79688 155.74693Q242.60938 155.91881 243.10938 156.16881Q243.60938 156.41881 243.84375 156.77818Q244.09375 157.13756 244.09375 157.63756Q244.09375 158.49693 243.40625 159.01256Q242.73438 159.52818 241.65625 159.52818Q240.89062 159.52818 240.29688 159.26256Q239.71875 158.98131 239.39062 158.49693Q239.0625 158.01256 239.0625 157.45006L240.14062 157.45006Q240.17188 157.99693 240.57812 158.32506Q240.98438 158.63756 241.65625 158.63756Q242.26562 158.63756 242.64062 158.38756Q243.01562 158.13756 243.01562 157.71568ZM247.95312 159.52818Q246.65625 159.52818 245.84375 158.68443Q245.04688 157.82506 245.04688 156.40318L245.04688 156.21568Q245.04688 155.26256 245.40625 154.52818Q245.76562 153.77818 246.40625 153.37193Q247.0625 152.95006 247.8125 152.95006Q249.04688 152.95006 249.73438 153.76256Q250.42188 154.57506 250.42188 156.09068L250.42188 156.54381L246.125 156.54381Q246.15625 157.48131 246.67188 158.05943Q247.20312 158.63756 248.01562 158.63756Q248.57812 158.63756 248.96875 158.40318Q249.375 158.16881 249.6875 157.77818L250.34375 158.29381Q249.54688 159.52818 247.95312 159.52818ZM247.8125 153.84068Q247.15625 153.84068 246.70312 154.32506Q246.26562 154.79381 246.17188 155.65318L249.34375 155.65318L249.34375 155.57506Q249.29688 154.74693 248.89062 154.29381Q248.5 153.84068 247.8125 153.84068ZM252.5 159.40318L251.42188 159.40318L251.42188 150.40318L252.5 150.40318L252.5 159.40318ZM255.5 159.40318L254.42188 159.40318L254.42188 153.05943L255.5 153.05943L255.5 159.40318ZM254.32812 151.38756Q254.32812 151.12193 254.48438 150.93443Q254.65625 150.74693 254.96875 150.74693Q255.28125 150.74693 255.4375 150.93443Q255.60938 151.12193 255.60938 151.38756Q255.60938 151.63756 255.4375 151.82506Q255.28125 151.99693 254.96875 151.99693Q254.65625 151.99693 254.48438 151.82506Q254.32812 151.63756 254.32812 151.38756ZM258.34375 153.05943L258.375 153.85631Q259.10938 152.95006 260.28125 152.95006Q262.29688 152.95006 262.3125 155.21568L262.3125 159.40318L261.21875 159.40318L261.21875 155.20006Q261.21875 154.52818 260.90625 154.20006Q260.60938 153.87193 259.95312 153.87193Q259.42188 153.87193 259.01562 154.15318Q258.625 154.43443 258.40625 154.88756L258.40625 159.40318L257.32812 159.40318L257.32812 153.05943L258.34375 153.05943ZM266.95312 159.52818Q265.65625 159.52818 264.84375 158.68443Q264.04688 157.82506 264.04688 156.40318L264.04688 156.21568Q264.04688 155.26256 264.40625 154.52818Q264.76562 153.77818 265.40625 153.37193Q266.0625 152.95006 266.8125 152.95006Q268.04688 152.95006 268.73438 153.76256Q269.42188 154.57506 269.42188 156.09068L269.42188 156.54381L265.125 156.54381Q265.15625 157.48131 265.67188 158.05943Q266.20312 158.63756 267.01562 158.63756Q267.57812 158.63756 267.96875 158.40318Q268.375 158.16881 268.6875 157.77818L269.34375 158.29381Q268.54688 159.52818 266.95312 159.52818ZM266.8125 153.84068Q266.15625 153.84068 265.70312 154.32506Q265.26562 154.79381 265.17188 155.65318L268.34375 155.65318L268.34375 155.57506Q268.29688 154.74693 267.89062 154.29381Q267.5 153.84068 266.8125 153.84068Z" fill-rule="nonzero"/><path fill="#ffffff" d="M230.6875 156.30943Q230.6875 157.76256 230.01562 158.65318Q229.35938 159.52818 228.23438 159.52818Q227.03125 159.52818 226.375 158.66881L226.3125 159.40318L225.32812 159.40318L225.32812 150.40318L226.40625 150.40318L226.40625 153.76256Q227.0625 152.95006 228.21875 152.95006Q229.375 152.95006 230.03125 153.82506Q230.6875 154.68443 230.6875 156.21568L230.6875 156.30943ZM229.60938 156.18443Q229.60938 155.07506 229.17188 154.48131Q228.75 153.87193 227.95312 153.87193Q226.875 153.87193 226.40625 154.85631L226.40625 157.60631Q226.90625 158.60631 227.95312 158.60631Q228.73438 158.60631 229.17188 157.99693Q229.60938 157.38756 229.60938 156.18443ZM236.23438 159.40318Q236.14062 159.21568 236.07812 158.73131Q235.32812 159.52818 234.28125 159.52818Q233.34375 159.52818 232.73438 158.99693Q232.14062 158.46568 232.14062 157.63756Q232.14062 156.65318 232.89062 156.10631Q233.64062 155.55943 235.01562 155.55943L236.0625 155.55943L236.0625 155.05943Q236.0625 154.49693 235.71875 154.16881Q235.39062 153.82506 234.71875 153.82506Q234.14062 153.82506 233.75 154.12193Q233.35938 154.40318 233.35938 154.82506L232.26562 154.82506Q232.26562 154.34068 232.59375 153.90318Q232.9375 153.46568 233.51562 153.21568Q234.09375 152.95006 234.78125 152.95006Q235.89062 152.95006 236.5 153.49693Q237.125 154.04381 237.15625 154.99693L237.15625 157.91881Q237.15625 158.79381 237.375 159.30943L237.375 159.40318L236.23438 159.40318ZM234.4375 158.57506Q234.95312 158.57506 235.40625 158.30943Q235.85938 158.04381 236.0625 157.62193L236.0625 156.32506L235.21875 156.32506Q233.21875 156.32506 233.21875 157.49693Q233.21875 157.99693 233.5625 158.29381Q233.90625 158.57506 234.4375 158.57506ZM243.01562 157.71568Q243.01562 157.27818 242.67188 157.04381Q242.34375 156.79381 241.51562 156.62193Q240.70312 156.45006 240.21875 156.20006Q239.73438 155.95006 239.5 155.62193Q239.28125 155.27818 239.28125 154.80943Q239.28125 154.02818 239.9375 153.49693Q240.59375 152.95006 241.625 152.95006Q242.70312 152.95006 243.35938 153.51256Q244.03125 154.05943 244.03125 154.91881L242.95312 154.91881Q242.95312 154.48131 242.5625 154.16881Q242.1875 153.84068 241.625 153.84068Q241.03125 153.84068 240.6875 154.10631Q240.35938 154.35631 240.35938 154.76256Q240.35938 155.15318 240.67188 155.35631Q240.98438 155.55943 241.79688 155.74693Q242.60938 155.91881 243.10938 156.16881Q243.60938 156.41881 243.84375 156.77818Q244.09375 157.13756 244.09375 157.63756Q244.09375 158.49693 243.40625 159.01256Q242.73438 159.52818 241.65625 159.52818Q240.89062 159.52818 240.29688 159.26256Q239.71875 158.98131 239.39062 158.49693Q239.0625 158.01256 239.0625 157.45006L240.14062 157.45006Q240.17188 157.99693 240.57812 158.32506Q240.98438 158.63756 241.65625 158.63756Q242.26562 158.63756 242.64062 158.38756Q243.01562 158.13756 243.01562 157.71568ZM247.95312 159.52818Q246.65625 159.52818 245.84375 158.68443Q245.04688 157.82506 245.04688 156.40318L245.04688 156.21568Q245.04688 155.26256 245.40625 154.52818Q245.76562 153.77818 246.40625 153.37193Q247.0625 152.95006 247.8125 152.95006Q249.04688 152.95006 249.73438 153.76256Q250.42188 154.57506 250.42188 156.09068L250.42188 156.54381L246.125 156.54381Q246.15625 157.48131 246.67188 158.05943Q247.20312 158.63756 248.01562 158.63756Q248.57812 158.63756 248.96875 158.40318Q249.375 158.16881 249.6875 157.77818L250.34375 158.29381Q249.54688 159.52818 247.95312 159.52818ZM247.8125 153.84068Q247.15625 153.84068 246.70312 154.32506Q246.26562 154.79381 246.17188 155.65318L249.34375 155.65318L249.34375 155.57506Q249.29688 154.74693 248.89062 154.29381Q248.5 153.84068 247.8125 153.84068ZM252.5 159.40318L251.42188 159.40318L251.42188 150.40318L252.5 150.40318L252.5 159.40318ZM255.5 159.40318L254.42188 159.40318L254.42188 153.05943L255.5 153.05943L255.5 159.40318ZM254.32812 151.38756Q254.32812 151.12193 254.48438 150.93443Q254.65625 150.74693 254.96875 150.74693Q255.28125 150.74693 255.4375 150.93443Q255.60938 151.12193 255.60938 151.38756Q255.60938 151.63756 255.4375 151.82506Q255.28125 151.99693 254.96875 151.99693Q254.65625 151.99693 254.48438 151.82506Q254.32812 151.63756 254.32812 151.38756ZM258.34375 153.05943L258.375 153.85631Q259.10938 152.95006 260.28125 152.95006Q262.29688 152.95006 262.3125 155.21568L262.3125 159.40318L261.21875 159.40318L261.21875 155.20006Q261.21875 154.52818 260.90625 154.20006Q260.60938 153.87193 259.95312 153.87193Q259.42188 153.87193 259.01562 154.15318Q258.625 154.43443 258.40625 154.88756L258.40625 159.40318L257.32812 159.40318L257.32812 153.05943L258.34375 153.05943ZM266.95312 159.52818Q265.65625 159.52818 264.84375 158.68443Q264.04688 157.82506 264.04688 156.40318L264.04688 156.21568Q264.04688 155.26256 264.40625 154.52818Q264.76562 153.77818 265.40625 153.37193Q266.0625 152.95006 266.8125 152.95006Q268.04688 152.95006 268.73438 153.76256Q269.42188 154.57506 269.42188 156.09068L269.42188 156.54381L265.125 156.54381Q265.15625 157.48131 265.67188 158.05943Q266.20312 158.63756 267.01562 158.63756Q267.57812 158.63756 267.96875 158.40318Q268.375 158.16881 268.6875 157.77818L269.34375 158.29381Q268.54688 159.52818 266.95312 159.52818ZM266.8125 153.84068Q266.15625 153.84068 265.70312 154.32506Q265.26562 154.79381 265.17188 155.65318L268.34375 155.65318L268.34375 155.57506Q268.29688 154.74693 267.89062 154.29381Q267.5 153.84068 266.8125 153.84068Z" fill-rule="nonzero"/><path stroke="#ffffff" stroke-width="3.0" stroke-linejoin="round" stroke-linecap="round" d="M314.0 287.37463L314.0 293.1715Q313.98438 294.37463 313.23438 295.15588Q312.48438 295.9215 311.20312 296.01526L310.89062 296.03088Q309.5 296.03088 308.65625 295.28088Q307.82812 294.51526 307.82812 293.18713L307.82812 287.37463L308.9375 287.37463L308.9375 293.15588Q308.9375 294.07776 309.4375 294.59338Q309.95312 295.109 310.89062 295.109Q311.85938 295.109 312.35938 294.59338Q312.85938 294.07776 312.85938 293.15588L312.85938 287.37463L314.0 287.37463ZM316.84375 289.56213L316.875 290.359Q317.60938 289.45276 318.78125 289.45276Q320.79688 289.45276 320.8125 291.71838L320.8125 295.90588L319.71875 295.90588L319.71875 291.70276Q319.71875 291.03088 319.40625 290.70276Q319.10938 290.37463 318.45312 290.37463Q317.92188 290.37463 317.51562 290.65588Q317.125 290.93713 316.90625 291.39026L316.90625 295.90588L315.82812 295.90588L315.82812 289.56213L316.84375 289.56213ZM324.0 295.90588L322.92188 295.90588L322.92188 289.56213L324.0 289.56213L324.0 295.90588ZM322.82812 287.89026Q322.82812 287.62463 322.98438 287.43713Q323.15625 287.24963 323.46875 287.24963Q323.78125 287.24963 323.9375 287.43713Q324.10938 287.62463 324.10938 287.89026Q324.10938 288.14026 323.9375 288.32776Q323.78125 288.49963 323.46875 288.49963Q323.15625 288.49963 322.98438 288.32776Q322.82812 288.14026 322.82812 287.89026ZM326.35938 295.90588L326.35938 290.40588L325.35938 290.40588L325.35938 289.56213L326.35938 289.56213L326.35938 288.9215Q326.35938 287.89026 326.89062 287.34338Q327.4375 286.78088 328.4375 286.78088Q328.8125 286.78088 329.1875 286.87463L329.125 287.76526Q328.84375 287.70276 328.54688 287.70276Q328.01562 287.70276 327.71875 288.01526Q327.4375 288.32776 327.4375 288.89026L327.4375 289.56213L328.79688 289.56213L328.79688 290.40588L327.4375 290.40588L327.4375 295.90588L326.35938 295.90588ZM329.53125 292.6715Q329.53125 291.74963 329.89062 290.99963Q330.26562 290.24963 330.92188 289.859Q331.57812 289.45276 332.40625 289.45276Q333.70312 289.45276 334.5 290.34338Q335.3125 291.234 335.3125 292.734L335.3125 292.81213Q335.3125 293.734 334.95312 294.46838Q334.59375 295.20276 333.9375 295.62463Q333.28125 296.03088 332.42188 296.03088Q331.14062 296.03088 330.32812 295.14026Q329.53125 294.234 329.53125 292.74963L329.53125 292.6715ZM330.625 292.81213Q330.625 293.859 331.10938 294.49963Q331.60938 295.14026 332.42188 295.14026Q333.25 295.14026 333.73438 294.49963Q334.21875 293.84338 334.21875 292.6715Q334.21875 291.64026 333.71875 290.99963Q333.23438 290.34338 332.40625 290.34338Q331.60938 290.34338 331.10938 290.984Q330.625 291.609 330.625 292.81213ZM339.89062 290.53088Q339.64062 290.49963 339.35938 290.49963Q338.28125 290.49963 337.90625 291.40588L337.90625 295.90588L336.82812 295.90588L336.82812 289.56213L337.875 289.56213L337.89062 290.2965Q338.42188 289.45276 339.40625 289.45276Q339.71875 289.45276 339.89062 289.53088L339.89062 290.53088ZM341.84375 289.56213L341.875 290.26526Q342.5625 289.45276 343.75 289.45276Q345.07812 289.45276 345.5625 290.46838Q345.875 290.01526 346.375 289.734Q346.89062 289.45276 347.57812 289.45276Q349.67188 289.45276 349.70312 291.65588L349.70312 295.90588L348.625 295.90588L348.625 291.71838Q348.625 291.0465 348.3125 290.71838Q348.0 290.37463 347.26562 290.37463Q346.65625 290.37463 346.25 290.734Q345.85938 291.09338 345.79688 291.70276L345.79688 295.90588L344.71875 295.90588L344.71875 291.74963Q344.71875 290.37463 343.35938 290.37463Q342.29688 290.37463 341.90625 291.28088L341.90625 295.90588L340.8125 295.90588L340.8125 289.56213L341.84375 289.56213Z" fill-rule="nonzero"/><path fill="#ea4335" d="M314.0 287.37463L314.0 293.1715Q313.98438 294.37463 313.23438 295.15588Q312.48438 295.9215 311.20312 296.01526L310.89062 296.03088Q309.5 296.03088 308.65625 295.28088Q307.82812 294.51526 307.82812 293.18713L307.82812 287.37463L308.9375 287.37463L308.9375 293.15588Q308.9375 294.07776 309.4375 294.59338Q309.95312 295.109 310.89062 295.109Q311.85938 295.109 312.35938 294.59338Q312.85938 294.07776 312.85938 293.15588L312.85938 287.37463L314.0 287.37463ZM316.84375 289.56213L316.875 290.359Q317.60938 289.45276 318.78125 289.45276Q320.79688 289.45276 320.8125 291.71838L320.8125 295.90588L319.71875 295.90588L319.71875 291.70276Q319.71875 291.03088 319.40625 290.70276Q319.10938 290.37463 318.45312 290.37463Q317.92188 290.37463 317.51562 290.65588Q317.125 290.93713 316.90625 291.39026L316.90625 295.90588L315.82812 295.90588L315.82812 289.56213L316.84375 289.56213ZM324.0 295.90588L322.92188 295.90588L322.92188 289.56213L324.0 289.56213L324.0 295.90588ZM322.82812 287.89026Q322.82812 287.62463 322.98438 287.43713Q323.15625 287.24963 323.46875 287.24963Q323.78125 287.24963 323.9375 287.43713Q324.10938 287.62463 324.10938 287.89026Q324.10938 288.14026 323.9375 288.32776Q323.78125 288.49963 323.46875 288.49963Q323.15625 288.49963 322.98438 288.32776Q322.82812 288.14026 322.82812 287.89026ZM326.35938 295.90588L326.35938 290.40588L325.35938 290.40588L325.35938 289.56213L326.35938 289.56213L326.35938 288.9215Q326.35938 287.89026 326.89062 287.34338Q327.4375 286.78088 328.4375 286.78088Q328.8125 286.78088 329.1875 286.87463L329.125 287.76526Q328.84375 287.70276 328.54688 287.70276Q328.01562 287.70276 327.71875 288.01526Q327.4375 288.32776 327.4375 288.89026L327.4375 289.56213L328.79688 289.56213L328.79688 290.40588L327.4375 290.40588L327.4375 295.90588L326.35938 295.90588ZM329.53125 292.6715Q329.53125 291.74963 329.89062 290.99963Q330.26562 290.24963 330.92188 289.859Q331.57812 289.45276 332.40625 289.45276Q333.70312 289.45276 334.5 290.34338Q335.3125 291.234 335.3125 292.734L335.3125 292.81213Q335.3125 293.734 334.95312 294.46838Q334.59375 295.20276 333.9375 295.62463Q333.28125 296.03088 332.42188 296.03088Q331.14062 296.03088 330.32812 295.14026Q329.53125 294.234 329.53125 292.74963L329.53125 292.6715ZM330.625 292.81213Q330.625 293.859 331.10938 294.49963Q331.60938 295.14026 332.42188 295.14026Q333.25 295.14026 333.73438 294.49963Q334.21875 293.84338 334.21875 292.6715Q334.21875 291.64026 333.71875 290.99963Q333.23438 290.34338 332.40625 290.34338Q331.60938 290.34338 331.10938 290.984Q330.625 291.609 330.625 292.81213ZM339.89062 290.53088Q339.64062 290.49963 339.35938 290.49963Q338.28125 290.49963 337.90625 291.40588L337.90625 295.90588L336.82812 295.90588L336.82812 289.56213L337.875 289.56213L337.89062 290.2965Q338.42188 289.45276 339.40625 289.45276Q339.71875 289.45276 339.89062 289.53088L339.89062 290.53088ZM341.84375 289.56213L341.875 290.26526Q342.5625 289.45276 343.75 289.45276Q345.07812 289.45276 345.5625 290.46838Q345.875 290.01526 346.375 289.734Q346.89062 289.45276 347.57812 289.45276Q349.67188 289.45276 349.70312 291.65588L349.70312 295.90588L348.625 295.90588L348.625 291.71838Q348.625 291.0465 348.3125 290.71838Q348.0 290.37463 347.26562 290.37463Q346.65625 290.37463 346.25 290.734Q345.85938 291.09338 345.79688 291.70276L345.79688 295.90588L344.71875 295.90588L344.71875 291.74963Q344.71875 290.37463 343.35938 290.37463Q342.29688 290.37463 341.90625 291.28088L341.90625 295.90588L340.8125 295.90588L340.8125 289.56213L341.84375 289.56213Z" fill-rule="nonzero"/><path stroke="#ffffff" stroke-width="3.0" stroke-linejoin="round" stroke-linecap="round" d="M393.76562 293.51782Q393.60938 294.86157 392.76562 295.61157Q391.92188 296.34595 390.53125 296.34595Q389.01562 296.34595 388.10938 295.26782Q387.20312 294.17407 387.20312 292.34595L387.20312 291.53345Q387.20312 290.34595 387.625 289.4397Q388.04688 288.53345 388.82812 288.04907Q389.60938 287.5647 390.625 287.5647Q391.98438 287.5647 392.79688 288.33032Q393.625 289.09595 393.76562 290.42407L392.64062 290.42407Q392.48438 289.40845 392.0 288.95532Q391.51562 288.5022 390.625 288.5022Q389.54688 288.5022 388.9375 289.29907Q388.32812 290.09595 388.32812 291.5647L388.32812 292.39282Q388.32812 293.78345 388.90625 294.61157Q389.48438 295.42407 390.53125 295.42407Q391.46875 295.42407 391.96875 295.0022Q392.46875 294.5647 392.64062 293.51782L393.76562 293.51782ZM395.03125 292.98657Q395.03125 292.0647 395.39062 291.3147Q395.76562 290.5647 396.42188 290.17407Q397.07812 289.76782 397.90625 289.76782Q399.20312 289.76782 400.0 290.65845Q400.8125 291.54907 400.8125 293.04907L400.8125 293.1272Q400.8125 294.04907 400.45312 294.78345Q400.09375 295.51782 399.4375 295.9397Q398.78125 296.34595 397.92188 296.34595Q396.64062 296.34595 395.82812 295.45532Q395.03125 294.54907 395.03125 293.0647L395.03125 292.98657ZM396.125 293.1272Q396.125 294.17407 396.60938 294.8147Q397.10938 295.45532 397.92188 295.45532Q398.75 295.45532 399.23438 294.8147Q399.71875 294.15845 399.71875 292.98657Q399.71875 291.95532 399.21875 291.3147Q398.73438 290.65845 397.90625 290.65845Q397.10938 290.65845 396.60938 291.29907Q396.125 291.92407 396.125 293.1272ZM403.40625 290.64282Q404.125 289.76782 405.28125 289.76782Q407.29688 289.76782 407.3125 292.03345L407.3125 296.22095L406.21875 296.22095L406.21875 292.01782Q406.21875 291.34595 405.90625 291.01782Q405.60938 290.6897 404.95312 290.6897Q404.42188 290.6897 404.01562 290.97095Q403.625 291.2522 403.40625 291.70532L403.40625 296.22095L402.32812 296.22095L402.32812 287.22095L403.40625 287.22095L403.40625 290.64282ZM411.95312 296.34595Q410.65625 296.34595 409.84375 295.5022Q409.04688 294.64282 409.04688 293.22095L409.04688 293.03345Q409.04688 292.08032 409.40625 291.34595Q409.76562 290.59595 410.40625 290.1897Q411.0625 289.76782 411.8125 289.76782Q413.04688 289.76782 413.73438 290.58032Q414.42188 291.39282 414.42188 292.90845L414.42188 293.36157L410.125 293.36157Q410.15625 294.29907 410.67188 294.8772Q411.20312 295.45532 412.01562 295.45532Q412.57812 295.45532 412.96875 295.22095Q413.375 294.98657 413.6875 294.59595L414.34375 295.11157Q413.54688 296.34595 411.95312 296.34595ZM411.8125 290.65845Q411.15625 290.65845 410.70312 291.14282Q410.26562 291.61157 410.17188 292.47095L413.34375 292.47095L413.34375 292.39282Q413.29688 291.5647 412.89062 291.11157Q412.5 290.65845 411.8125 290.65845ZM418.39062 290.84595Q418.14062 290.8147 417.85938 290.8147Q416.78125 290.8147 416.40625 291.72095L416.40625 296.22095L415.32812 296.22095L415.32812 289.8772L416.375 289.8772L416.39062 290.61157Q416.92188 289.76782 417.90625 289.76782Q418.21875 289.76782 418.39062 289.84595L418.39062 290.84595ZM421.95312 296.34595Q420.65625 296.34595 419.84375 295.5022Q419.04688 294.64282 419.04688 293.22095L419.04688 293.03345Q419.04688 292.08032 419.40625 291.34595Q419.76562 290.59595 420.40625 290.1897Q421.0625 289.76782 421.8125 289.76782Q423.04688 289.76782 423.73438 290.58032Q424.42188 291.39282 424.42188 292.90845L424.42188 293.36157L420.125 293.36157Q420.15625 294.29907 420.67188 294.8772Q421.20312 295.45532 422.01562 295.45532Q422.57812 295.45532 422.96875 295.22095Q423.375 294.98657 423.6875 294.59595L424.34375 295.11157Q423.54688 296.34595 421.95312 296.34595ZM421.8125 290.65845Q421.15625 290.65845 420.70312 291.14282Q420.26562 291.61157 420.17188 292.47095L423.34375 292.47095L423.34375 292.39282Q423.29688 291.5647 422.89062 291.11157Q422.5 290.65845 421.8125 290.65845ZM426.34375 289.8772L426.375 290.67407Q427.10938 289.76782 428.28125 289.76782Q430.29688 289.76782 430.3125 292.03345L430.3125 296.22095L429.21875 296.22095L429.21875 292.01782Q429.21875 291.34595 428.90625 291.01782Q428.60938 290.6897 427.95312 290.6897Q427.42188 290.6897 427.01562 290.97095Q426.625 291.2522 426.40625 291.70532L426.40625 296.22095L425.32812 296.22095L425.32812 289.8772L426.34375 289.8772ZM433.79688 288.34595L433.79688 289.8772L434.96875 289.8772L434.96875 290.72095L433.79688 290.72095L433.79688 294.64282Q433.79688 295.03345 433.95312 295.22095Q434.10938 295.40845 434.48438 295.40845Q434.67188 295.40845 435.0 295.34595L435.0 296.22095Q434.57812 296.34595 434.17188 296.34595Q433.45312 296.34595 433.07812 295.90845Q432.70312 295.45532 432.70312 294.64282L432.70312 290.72095L431.54688 290.72095L431.54688 289.8772L432.70312 289.8772L432.70312 288.34595L433.79688 288.34595Z" fill-rule="nonzero"/><path fill="#fbbc04" d="M393.76562 293.51782Q393.60938 294.86157 392.76562 295.61157Q391.92188 296.34595 390.53125 296.34595Q389.01562 296.34595 388.10938 295.26782Q387.20312 294.17407 387.20312 292.34595L387.20312 291.53345Q387.20312 290.34595 387.625 289.4397Q388.04688 288.53345 388.82812 288.04907Q389.60938 287.5647 390.625 287.5647Q391.98438 287.5647 392.79688 288.33032Q393.625 289.09595 393.76562 290.42407L392.64062 290.42407Q392.48438 289.40845 392.0 288.95532Q391.51562 288.5022 390.625 288.5022Q389.54688 288.5022 388.9375 289.29907Q388.32812 290.09595 388.32812 291.5647L388.32812 292.39282Q388.32812 293.78345 388.90625 294.61157Q389.48438 295.42407 390.53125 295.42407Q391.46875 295.42407 391.96875 295.0022Q392.46875 294.5647 392.64062 293.51782L393.76562 293.51782ZM395.03125 292.98657Q395.03125 292.0647 395.39062 291.3147Q395.76562 290.5647 396.42188 290.17407Q397.07812 289.76782 397.90625 289.76782Q399.20312 289.76782 400.0 290.65845Q400.8125 291.54907 400.8125 293.04907L400.8125 293.1272Q400.8125 294.04907 400.45312 294.78345Q400.09375 295.51782 399.4375 295.9397Q398.78125 296.34595 397.92188 296.34595Q396.64062 296.34595 395.82812 295.45532Q395.03125 294.54907 395.03125 293.0647L395.03125 292.98657ZM396.125 293.1272Q396.125 294.17407 396.60938 294.8147Q397.10938 295.45532 397.92188 295.45532Q398.75 295.45532 399.23438 294.8147Q399.71875 294.15845 399.71875 292.98657Q399.71875 291.95532 399.21875 291.3147Q398.73438 290.65845 397.90625 290.65845Q397.10938 290.65845 396.60938 291.29907Q396.125 291.92407 396.125 293.1272ZM403.40625 290.64282Q404.125 289.76782 405.28125 289.76782Q407.29688 289.76782 407.3125 292.03345L407.3125 296.22095L406.21875 296.22095L406.21875 292.01782Q406.21875 291.34595 405.90625 291.01782Q405.60938 290.6897 404.95312 290.6897Q404.42188 290.6897 404.01562 290.97095Q403.625 291.2522 403.40625 291.70532L403.40625 296.22095L402.32812 296.22095L402.32812 287.22095L403.40625 287.22095L403.40625 290.64282ZM411.95312 296.34595Q410.65625 296.34595 409.84375 295.5022Q409.04688 294.64282 409.04688 293.22095L409.04688 293.03345Q409.04688 292.08032 409.40625 291.34595Q409.76562 290.59595 410.40625 290.1897Q411.0625 289.76782 411.8125 289.76782Q413.04688 289.76782 413.73438 290.58032Q414.42188 291.39282 414.42188 292.90845L414.42188 293.36157L410.125 293.36157Q410.15625 294.29907 410.67188 294.8772Q411.20312 295.45532 412.01562 295.45532Q412.57812 295.45532 412.96875 295.22095Q413.375 294.98657 413.6875 294.59595L414.34375 295.11157Q413.54688 296.34595 411.95312 296.34595ZM411.8125 290.65845Q411.15625 290.65845 410.70312 291.14282Q410.26562 291.61157 410.17188 292.47095L413.34375 292.47095L413.34375 292.39282Q413.29688 291.5647 412.89062 291.11157Q412.5 290.65845 411.8125 290.65845ZM418.39062 290.84595Q418.14062 290.8147 417.85938 290.8147Q416.78125 290.8147 416.40625 291.72095L416.40625 296.22095L415.32812 296.22095L415.32812 289.8772L416.375 289.8772L416.39062 290.61157Q416.92188 289.76782 417.90625 289.76782Q418.21875 289.76782 418.39062 289.84595L418.39062 290.84595ZM421.95312 296.34595Q420.65625 296.34595 419.84375 295.5022Q419.04688 294.64282 419.04688 293.22095L419.04688 293.03345Q419.04688 292.08032 419.40625 291.34595Q419.76562 290.59595 420.40625 290.1897Q421.0625 289.76782 421.8125 289.76782Q423.04688 289.76782 423.73438 290.58032Q424.42188 291.39282 424.42188 292.90845L424.42188 293.36157L420.125 293.36157Q420.15625 294.29907 420.67188 294.8772Q421.20312 295.45532 422.01562 295.45532Q422.57812 295.45532 422.96875 295.22095Q423.375 294.98657 423.6875 294.59595L424.34375 295.11157Q423.54688 296.34595 421.95312 296.34595ZM421.8125 290.65845Q421.15625 290.65845 420.70312 291.14282Q420.26562 291.61157 420.17188 292.47095L423.34375 292.47095L423.34375 292.39282Q423.29688 291.5647 422.89062 291.11157Q422.5 290.65845 421.8125 290.65845ZM426.34375 289.8772L426.375 290.67407Q427.10938 289.76782 428.28125 289.76782Q430.29688 289.76782 430.3125 292.03345L430.3125 296.22095L429.21875 296.22095L429.21875 292.01782Q429.21875 291.34595 428.90625 291.01782Q428.60938 290.6897 427.95312 290.6897Q427.42188 290.6897 427.01562 290.97095Q426.625 291.2522 426.40625 291.70532L426.40625 296.22095L425.32812 296.22095L425.32812 289.8772L426.34375 289.8772ZM433.79688 288.34595L433.79688 289.8772L434.96875 289.8772L434.96875 290.72095L433.79688 290.72095L433.79688 294.64282Q433.79688 295.03345 433.95312 295.22095Q434.10938 295.40845 434.48438 295.40845Q434.67188 295.40845 435.0 295.34595L435.0 296.22095Q434.57812 296.34595 434.17188 296.34595Q433.45312 296.34595 433.07812 295.90845Q432.70312 295.45532 432.70312 294.64282L432.70312 290.72095L431.54688 290.72095L431.54688 289.8772L432.70312 289.8772L432.70312 288.34595L433.79688 288.34595Z" fill-rule="nonzero"/><path fill="#000000" d="M90.3875 357.05L88.7 357.05L88.40312 349.8781L87.02812 357.05L85.43437 357.05L87.23125 348.45624L89.74687 348.45624L90.0125 354.47186L92.95 348.45624L95.49687 348.45624L93.7 357.05L92.075 357.05L93.77812 349.925L90.3875 357.05ZM101.49687 354.45624L97.27812 354.45624Q97.2625 354.5656 97.2625 354.6125Q97.2625 355.2375 97.62187 355.6125Q97.98125 355.9875 98.48125 355.9875Q99.325 355.9875 99.79375 355.1281L101.29375 355.3781Q100.85625 356.28436 100.12187 356.7375Q99.3875 357.1906 98.46562 357.1906Q97.21562 357.1906 96.43437 356.40936Q95.65312 355.6125 95.65312 354.3Q95.65312 353.01874 96.35625 352.03436Q97.325 350.675 99.12187 350.675Q100.2625 350.675 100.93437 351.39374Q101.60625 352.09686 101.60625 353.3625Q101.60625 353.97186 101.49687 354.45624ZM100.075 353.4406Q100.075 353.3156 100.075 353.26874Q100.075 352.5656 99.7625 352.22186Q99.45 351.8781 98.93437 351.8781Q98.41875 351.8781 97.99687 352.26874Q97.59062 352.65936 97.43437 353.4406L100.075 353.4406ZM102.85625 352.08124L103.10625 350.83124L103.93437 350.83124L104.1375 349.83124L106.05937 348.675L105.60625 350.83124L106.6375 350.83124L106.3875 352.08124L105.35625 352.08124L104.80937 354.675Q104.65312 355.39374 104.65312 355.4875Q104.65312 355.6906 104.77812 355.8Q104.90312 355.89374 105.23125 355.89374Q105.34062 355.89374 105.77812 355.8625L105.5125 357.1125Q105.09062 357.1906 104.62187 357.1906Q103.73125 357.1906 103.325 356.84686Q102.93437 356.5031 102.93437 355.89374Q102.93437 355.6125 103.15312 354.58124L103.66875 352.08124L102.85625 352.08124ZM108.1375 357.05L106.45 357.05L108.24687 348.45624L109.93437 348.45624L109.29375 351.51874Q109.85625 351.0656 110.34062 350.8781Q110.84062 350.675 111.40312 350.675Q112.16875 350.675 112.60625 351.1125Q113.04375 351.55 113.04375 352.2531Q113.04375 352.6281 112.87187 353.40936L112.12187 357.05L110.43437 357.05L111.21562 353.34686Q111.34062 352.7375 111.34062 352.5656Q111.34062 352.2531 111.1375 352.0656Q110.95 351.8781 110.62187 351.8781Q110.2 351.8781 109.80937 352.175Q109.30937 352.5656 109.04375 353.1281Q108.8875 353.4406 108.65312 354.58124L108.1375 357.05ZM113.68437 354.47186Q113.68437 352.7375 114.65312 351.70624Q115.62187 350.675 117.21562 350.675Q118.59062 350.675 119.35625 351.4406Q120.1375 352.1906 120.1375 353.4875Q120.1375 354.9875 119.16875 356.09686Q118.2 357.1906 116.59062 357.1906Q115.7 357.1906 115.0125 356.84686Q114.34062 356.4875 114.0125 355.84686Q113.68437 355.20624 113.68437 354.47186ZM118.46562 353.26874Q118.46562 352.65936 118.12187 352.3Q117.77812 351.9406 117.21562 351.9406Q116.68437 351.9406 116.2625 352.28436Q115.84062 352.6125 115.60625 353.26874Q115.37187 353.90936 115.37187 354.4406Q115.37187 355.1125 115.73125 355.5031Q116.09062 355.89374 116.6375 355.89374Q117.34062 355.89374 117.80937 355.3Q118.46562 354.47186 118.46562 353.26874ZM126.18437 357.05L124.59062 357.05L124.73125 356.3781Q124.2625 356.8156 123.825 357.0031Q123.3875 357.1906 122.825 357.1906Q121.85625 357.1906 121.24687 356.53436Q120.65312 355.8781 120.65312 354.58124Q120.65312 353.09686 121.49687 351.89374Q122.34062 350.675 123.73125 350.675Q124.99687 350.675 125.62187 351.675L126.29375 348.45624L127.96562 348.45624L126.18437 357.05ZM122.29375 354.51874Q122.29375 355.1906 122.62187 355.5656Q122.96562 355.9406 123.46562 355.9406Q123.91875 355.9406 124.30937 355.6281Q124.71562 355.3156 124.95 354.675Q125.18437 354.01874 125.18437 353.425Q125.18437 352.7531 124.80937 352.34686Q124.45 351.925 123.98125 351.925Q123.24687 351.925 122.7625 352.7531Q122.29375 353.5656 122.29375 354.51874Z" fill-rule="nonzero"/><path fill="#000000" d="M29.949987 295.66458L21.356237 293.8677L21.356237 292.10208L25.012487 292.85208L21.356237 288.88333L21.356237 286.52396L24.731237 290.3677L29.949987 287.53958L29.949987 289.53958L25.856237 291.66458L27.324987 293.33646L29.949987 293.88333L29.949987 295.66458ZM27.356237 280.58646L27.356237 284.8052Q27.465612 284.82083 27.512487 284.82083Q28.137487 284.82083 28.512487 284.46146Q28.887487 284.10208 28.887487 283.60208Q28.887487 282.75833 28.028112 282.28958L28.278112 280.78958Q29.184362 281.22708 29.637487 281.96146Q30.090612 282.69583 30.090612 283.6177Q30.090612 284.8677 29.309362 285.64896Q28.512487 286.4302 27.199987 286.4302Q25.918737 286.4302 24.934362 285.72708Q23.574987 284.75833 23.574987 282.96146Q23.574987 281.82083 24.293737 281.14896Q24.996862 280.47708 26.262487 280.47708Q26.871862 280.47708 27.356237 280.58646ZM26.340612 282.00833Q26.215612 282.00833 26.168737 282.00833Q25.465612 282.00833 25.121862 282.32083Q24.778112 282.63333 24.778112 283.14896Q24.778112 283.66458 25.168737 284.08646Q25.559362 284.4927 26.340612 284.64896L26.340612 282.00833ZM23.731237 278.44583L23.731237 276.8677L24.934362 277.13333Q23.574987 276.2427 23.574987 275.22708Q23.574987 274.85208 23.762487 274.44583L25.137487 275.08646Q25.059362 275.32083 25.059362 275.57083Q25.059362 276.00833 25.387487 276.46146Q25.715612 276.89896 26.262487 277.16458Q26.809362 277.41458 27.996862 277.64896L29.949987 278.07083L29.949987 279.7427L23.731237 278.44583ZM23.731237 273.32083L23.731237 271.72708L24.528112 271.89896Q24.012487 271.3052 23.793737 270.78958Q23.574987 270.25833 23.574987 269.69583Q23.574987 268.91458 24.028112 268.47708Q24.465612 268.03958 25.184362 268.03958Q25.512487 268.03958 26.434362 268.22708L29.949987 268.96146L29.949987 270.64896L26.418737 269.89896Q25.621862 269.7427 25.465612 269.7427Q25.153112 269.7427 24.965612 269.9302Q24.778112 270.1177 24.778112 270.46146Q24.778112 270.83646 25.090612 271.28958Q25.403112 271.72708 25.918737 271.9927Q26.278112 272.1802 27.387487 272.41458L29.949987 272.94583L29.949987 274.63333L23.731237 273.32083ZM27.356237 261.58646L27.356237 265.8052Q27.465612 265.82083 27.512487 265.82083Q28.137487 265.82083 28.512487 265.46146Q28.887487 265.10208 28.887487 264.60208Q28.887487 263.75833 28.028112 263.28958L28.278112 261.78958Q29.184362 262.22708 29.637487 262.96146Q30.090612 263.69583 30.090612 264.6177Q30.090612 265.8677 29.309362 266.64896Q28.512487 267.4302 27.199987 267.4302Q25.918737 267.4302 24.934362 266.72708Q23.574987 265.75833 23.574987 263.96146Q23.574987 262.82083 24.293737 262.14896Q24.996862 261.47708 26.262487 261.47708Q26.871862 261.47708 27.356237 261.58646ZM26.340612 263.00833Q26.215612 263.00833 26.168737 263.00833Q25.465612 263.00833 25.121862 263.32083Q24.778112 263.63333 24.778112 264.14896Q24.778112 264.66458 25.168737 265.08646Q25.559362 265.4927 26.340612 265.64896L26.340612 263.00833ZM29.949987 260.66458L21.356237 258.8677L21.356237 257.19583L29.949987 258.97708L29.949987 260.66458ZM26.043737 257.33646L26.043737 254.07083L27.668737 254.39896L27.668737 257.66458L26.043737 257.33646ZM27.168737 253.3677L27.074987 251.69583Q27.887487 251.64896 28.168737 251.41458Q28.621862 251.02396 28.621862 249.97708Q28.621862 249.1177 28.309362 248.72708Q27.996862 248.33646 27.559362 248.33646Q27.184362 248.33646 26.918737 248.66458Q26.715612 248.88333 26.293737 249.88333Q25.856237 250.88333 25.574987 251.35208Q25.278112 251.8052 24.809362 252.07083Q24.340612 252.32083 23.731237 252.32083Q22.637487 252.32083 21.934362 251.53958Q21.215612 250.75833 21.215612 249.27396Q21.215612 247.75833 21.934362 246.9302Q22.637487 246.10208 23.809362 246.02396L23.887487 247.71146Q23.262487 247.77396 22.934362 248.16458Q22.606237 248.53958 22.606237 249.27396Q22.606237 250.00833 22.871862 250.32083Q23.121862 250.63333 23.528112 250.63333Q23.887487 250.63333 24.137487 250.35208Q24.371862 250.07083 24.809362 249.08646Q25.449987 247.60208 25.840612 247.19583Q26.434362 246.58646 27.340612 246.58646Q28.481237 246.58646 29.293737 247.4927Q30.090612 248.38333 30.090612 249.9927Q30.090612 251.10208 29.731237 251.91458Q29.356237 252.72708 28.699987 253.07083Q28.028112 253.39896 27.168737 253.3677ZM24.981237 245.22708L23.731237 244.97708L23.731237 244.14896L22.731237 243.94583L21.574987 242.02396L23.731237 242.47708L23.731237 241.44583L24.981237 241.69583L24.981237 242.72708L27.574987 243.27396Q28.293737 243.4302 28.387487 243.4302Q28.590612 243.4302 28.699987 243.3052Q28.793737 243.1802 28.793737 242.85208Q28.793737 242.7427 28.762487 242.3052L30.012487 242.57083Q30.090612 242.9927 30.090612 243.46146Q30.090612 244.35208 29.746862 244.75833Q29.403112 245.14896 28.793737 245.14896Q28.512487 245.14896 27.481237 244.9302L24.981237 244.41458L24.981237 245.22708ZM27.356237 235.58646L27.356237 239.8052Q27.465612 239.82083 27.512487 239.82083Q28.137487 239.82083 28.512487 239.46146Q28.887487 239.10208 28.887487 238.60208Q28.887487 237.75833 28.028112 237.28958L28.278112 235.78958Q29.184362 236.22708 29.637487 236.96146Q30.090612 237.69583 30.090612 238.6177Q30.090612 239.8677 29.309362 240.64896Q28.512487 241.4302 27.199987 241.4302Q25.918737 241.4302 24.934362 240.72708Q23.574987 239.75833 23.574987 237.96146Q23.574987 236.82083 24.293737 236.14896Q24.996862 235.47708 26.262487 235.47708Q26.871862 235.47708 27.356237 235.58646ZM26.340612 237.00833Q26.215612 237.00833 26.168737 237.00833Q25.465612 237.00833 25.121862 237.32083Q24.778112 237.63333 24.778112 238.14896Q24.778112 238.66458 25.168737 239.08646Q25.559362 239.4927 26.340612 239.64896L26.340612 237.00833ZM23.731237 233.39896L23.731237 231.8052L24.371862 231.94583Q23.949987 231.4302 23.762487 230.9927Q23.574987 230.53958 23.574987 230.03958Q23.574987 229.0552 24.262487 228.46146Q24.934362 227.8677 26.262487 227.8677Q27.949987 227.8677 29.106237 228.89896Q30.090612 229.77396 30.090612 230.97708Q30.090612 232.21146 29.090612 232.83646L32.32499 233.50833L32.32499 235.19583L23.731237 233.39896ZM27.293737 232.38333Q28.028112 232.38333 28.434362 232.03958Q28.824987 231.6802 28.824987 231.19583Q28.824987 230.78958 28.528112 230.39896Q28.215612 230.00833 27.528112 229.75833Q26.824987 229.50833 26.215612 229.50833Q25.528112 229.50833 25.153112 229.83646Q24.778112 230.16458 24.778112 230.6802Q24.778112 231.16458 25.121862 231.57083Q25.465612 231.96146 26.137487 232.1802Q26.793737 232.38333 27.293737 232.38333ZM26.043737 227.33646L26.043737 224.07083L27.668737 224.39896L27.668737 227.66458L26.043737 227.33646ZM29.949987 219.89896L29.949987 221.66458L22.793737 220.16458L22.793737 222.69583L21.356237 222.39896L21.356237 215.6177L22.793737 215.9302L22.793737 218.41458L29.949987 219.89896ZM21.356237 214.85208L21.356237 213.1802L22.887487 213.4927L22.887487 215.1802L21.356237 214.85208ZM23.731237 215.35208L23.731237 213.66458L29.949987 214.97708L29.949987 216.64896L23.731237 215.35208ZM23.731237 212.39896L23.731237 210.82083L24.481237 210.97708Q23.574987 210.0552 23.574987 209.03958Q23.574987 208.33646 23.871862 207.96146Q24.168737 207.57083 24.684362 207.46146Q24.215612 207.14896 23.903112 206.53958Q23.574987 205.9302 23.574987 205.28958Q23.574987 204.53958 23.981237 204.13333Q24.371862 203.71146 25.028112 203.71146Q25.356237 203.71146 26.153112 203.8677L29.949987 204.66458L29.949987 206.35208L26.153112 205.5552Q25.434362 205.41458 25.340612 205.41458Q25.074987 205.41458 24.934362 205.57083Q24.778112 205.71146 24.778112 206.02396Q24.778112 206.64896 25.449987 207.14896Q25.918737 207.50833 27.121862 207.75833L29.949987 208.35208L29.949987 210.02396L26.184362 209.2427Q25.543737 209.1177 25.340612 209.1177Q25.090612 209.1177 24.934362 209.28958Q24.778112 209.44583 24.778112 209.7427Q24.778112 210.00833 24.949987 210.3052Q25.106237 210.60208 25.403112 210.82083Q25.684362 211.03958 26.137487 211.19583Q26.340612 211.27396 27.090612 211.4302L29.949987 212.02396L29.949987 213.71146L23.731237 212.39896ZM27.356237 196.58646L27.356237 200.8052Q27.465612 200.82083 27.512487 200.82083Q28.137487 200.82083 28.512487 200.46146Q28.887487 200.10208 28.887487 199.60208Q28.887487 198.75833 28.028112 198.28958L28.278112 196.78958Q29.184362 197.22708 29.637487 197.96146Q30.090612 198.69583 30.090612 199.6177Q30.090612 200.8677 29.309362 201.64896Q28.512487 202.4302 27.199987 202.4302Q25.918737 202.4302 24.934362 201.72708Q23.574987 200.75833 23.574987 198.96146Q23.574987 197.82083 24.293737 197.14896Q24.996862 196.47708 26.262487 196.47708Q26.871862 196.47708 27.356237 196.58646ZM26.340612 198.00833Q26.215612 198.00833 26.168737 198.00833Q25.465612 198.00833 25.121862 198.32083Q24.778112 198.63333 24.778112 199.14896Q24.778112 199.66458 25.168737 200.08646Q25.559362 200.4927 26.340612 200.64896L26.340612 198.00833ZM32.48124 193.25833L32.48124 194.39896Q31.356237 194.88333 30.199987 195.1177Q29.059362 195.33646 28.106237 195.33646Q26.918737 195.33646 25.715612 194.96146Q24.512487 194.57083 23.262487 193.78958Q22.465612 193.28958 21.215612 192.1802L21.215612 190.89896Q22.528112 192.02396 23.684362 192.63333Q24.840612 193.2427 26.199987 193.53958Q27.559362 193.83646 28.856237 193.83646Q29.731237 193.83646 30.559362 193.71146Q31.403112 193.57083 32.48124 193.25833ZM25.012487 187.71146L23.512487 187.39896Q22.559362 185.21146 21.309362 184.02396L21.309362 183.00833L29.949987 184.82083L29.949987 186.50833L23.996862 185.25833Q24.340612 185.78958 24.621862 186.47708Q24.903112 187.16458 25.012487 187.71146ZM27.356237 175.58646L27.356237 179.8052Q27.465612 179.82083 27.512487 179.82083Q28.137487 179.82083 28.512487 179.46146Q28.887487 179.10208 28.887487 178.60208Q28.887487 177.75833 28.028112 177.28958L28.278112 175.78958Q29.184362 176.22708 29.637487 176.96146Q30.090612 177.69583 30.090612 178.6177Q30.090612 179.8677 29.309362 180.64896Q28.512487 181.4302 27.199987 181.4302Q25.918737 181.4302 24.934362 180.72708Q23.574987 179.75833 23.574987 177.96146Q23.574987 176.82083 24.293737 176.14896Q24.996862 175.47708 26.262487 175.47708Q26.871862 175.47708 27.356237 175.58646ZM26.340612 177.00833Q26.215612 177.00833 26.168737 177.00833Q25.465612 177.00833 25.121862 177.32083Q24.778112 177.63333 24.778112 178.14896Q24.778112 178.66458 25.168737 179.08646Q25.559362 179.4927 26.340612 179.64896L26.340612 177.00833ZM26.043737 174.33646L26.043737 171.07083L27.668737 171.39896L27.668737 174.66458L26.043737 174.33646ZM23.449987 164.22708L23.590612 165.8052Q23.074987 165.85208 22.871862 166.0552Q22.668737 166.2427 22.668737 166.57083Q22.668737 167.00833 23.012487 167.33646Q23.496862 167.8052 24.574987 168.10208Q24.215612 167.5552 24.215612 166.94583Q24.215612 165.94583 24.903112 165.3052Q25.574987 164.66458 26.746862 164.66458Q27.684362 164.66458 28.512487 165.1177Q29.340612 165.5552 29.731237 166.2427Q30.106237 166.91458 30.106237 167.66458Q30.106237 168.38333 29.746862 168.96146Q29.387487 169.53958 28.699987 169.85208Q27.996862 170.16458 26.840612 170.16458Q24.528112 170.16458 22.934362 169.14896Q21.324987 168.1177 21.324987 166.44583Q21.324987 165.4927 21.856237 164.9302Q22.371862 164.35208 23.449987 164.22708ZM27.418737 168.53958Q28.106237 168.53958 28.434362 168.27396Q28.746862 168.00833 28.746862 167.60208Q28.746862 167.1177 28.293737 166.75833Q27.668737 166.28958 26.637487 166.28958Q25.965612 166.28958 25.653112 166.5552Q25.324987 166.82083 25.324987 167.19583Q25.324987 167.52396 25.574987 167.85208Q25.824987 168.1802 26.356237 168.3677Q26.871862 168.53958 27.418737 168.53958ZM28.215612 160.8677L27.949987 159.2427Q28.465612 159.02396 28.684362 158.71146Q28.887487 158.38333 28.887487 157.82083Q28.887487 157.2427 28.637487 156.89896Q28.465612 156.66458 28.215612 156.66458Q28.043737 156.66458 27.903112 156.78958Q27.778112 156.91458 27.590612 157.47708Q27.090612 159.00833 26.793737 159.3677Q26.340612 159.9302 25.590612 159.9302Q24.856237 159.9302 24.324987 159.38333Q23.574987 158.6177 23.574987 157.10208Q23.574987 155.89896 24.028112 155.28958Q24.465612 154.6802 25.215612 154.50833L25.481237 156.07083Q25.137487 156.1802 24.965612 156.46146Q24.746862 156.83646 24.746862 157.3677Q24.746862 157.89896 24.918737 158.13333Q25.090612 158.35208 25.324987 158.35208Q25.559362 158.35208 25.699987 158.1177Q25.793737 157.97708 26.028112 157.1802Q26.387487 155.94583 26.731237 155.52396Q27.231237 154.94583 27.903112 154.94583Q28.793737 154.94583 29.449987 155.69583Q30.090612 156.4302 30.090612 157.78958Q30.090612 159.13333 29.606237 159.8677Q29.106237 160.60208 28.215612 160.8677ZM27.356237 147.58646L27.356237 151.8052Q27.465612 151.82083 27.512487 151.82083Q28.137487 151.82083 28.512487 151.46146Q28.887487 151.10208 28.887487 150.60208Q28.887487 149.75833 28.028112 149.28958L28.278112 147.78958Q29.184362 148.22708 29.637487 148.96146Q30.090612 149.69583 30.090612 150.6177Q30.090612 151.8677 29.309362 152.64896Q28.512487 153.4302 27.199987 153.4302Q25.918737 153.4302 24.934362 152.72708Q23.574987 151.75833 23.574987 149.96146Q23.574987 148.82083 24.293737 148.14896Q24.996862 147.47708 26.262487 147.47708Q26.871862 147.47708 27.356237 147.58646ZM26.340612 149.00833Q26.215612 149.00833 26.168737 149.00833Q25.465612 149.00833 25.121862 149.32083Q24.778112 149.63333 24.778112 150.14896Q24.778112 150.66458 25.168737 151.08646Q25.559362 151.4927 26.340612 151.64896L26.340612 149.00833ZM27.606237 142.4302L27.871862 140.8052Q28.965612 141.19583 29.528112 141.9927Q30.090612 142.78958 30.090612 143.82083Q30.090612 145.02396 29.387487 145.72708Q28.684362 146.41458 27.434362 146.41458Q26.418737 146.41458 25.528112 145.9927Q24.621862 145.57083 24.106237 144.72708Q23.574987 143.8677 23.574987 142.85208Q23.574987 141.75833 24.153112 141.10208Q24.731237 140.44583 25.668737 140.35208L25.840612 141.96146Q25.309362 142.02396 25.074987 142.28958Q24.824987 142.53958 24.824987 142.96146Q24.824987 143.44583 25.184362 143.8677Q25.543737 144.28958 26.278112 144.52396Q26.996862 144.7427 27.621862 144.7427Q28.184362 144.7427 28.481237 144.47708Q28.778112 144.19583 28.778112 143.8052Q28.778112 143.39896 28.481237 143.02396Q28.184362 142.64896 27.606237 142.4302ZM27.371862 139.39896Q25.637487 139.39896 24.606237 138.4302Q23.574987 137.46146 23.574987 135.8677Q23.574987 134.4927 24.340612 133.72708Q25.090612 132.94583 26.387487 132.94583Q27.887487 132.94583 28.996862 133.91458Q30.090612 134.88333 30.090612 136.4927Q30.090612 137.38333 29.746862 138.07083Q29.387487 138.7427 28.746862 139.07083Q28.106237 139.39896 27.371862 139.39896ZM26.168737 134.6177Q25.559362 134.6177 25.199987 134.96146Q24.840612 135.3052 24.840612 135.8677Q24.840612 136.39896 25.184362 136.82083Q25.512487 137.2427 26.168737 137.47708Q26.809362 137.71146 27.340612 137.71146Q28.012487 137.71146 28.403112 137.35208Q28.793737 136.9927 28.793737 136.44583Q28.793737 135.7427 28.199987 135.27396Q27.371862 134.6177 26.168737 134.6177ZM23.731237 131.32083L23.731237 129.72708L24.528112 129.89896Q24.012487 129.3052 23.793737 128.78958Q23.574987 128.25833 23.574987 127.69583Q23.574987 126.91458 24.028112 126.47708Q24.465612 126.03958 25.184362 126.03958Q25.512487 126.03958 26.434362 126.22708L29.949987 126.96146L29.949987 128.64896L26.418737 127.89896Q25.621862 127.74271 25.465612 127.74271Q25.153112 127.74271 24.965612 127.93021Q24.778112 128.1177 24.778112 128.46146Q24.778112 128.83646 25.090612 129.28958Q25.403112 129.72708 25.918737 129.9927Q26.278112 130.1802 27.387487 130.41458L29.949987 130.94583L29.949987 132.63333L23.731237 131.32083ZM29.949987 119.89896L29.949987 121.49271L29.278112 121.35208Q29.715612 121.82083 29.903112 122.25833Q30.090612 122.69583 30.090612 123.25833Q30.090612 124.22708 29.434362 124.83646Q28.778112 125.43021 27.481237 125.43021Q25.996862 125.43021 24.793737 124.58646Q23.574987 123.74271 23.574987 122.35208Q23.574987 121.08646 24.574987 120.46146L21.356237 119.78958L21.356237 118.11771L29.949987 119.89896ZM27.418737 123.78958Q28.090612 123.78958 28.465612 123.46146Q28.840612 123.11771 28.840612 122.61771Q28.840612 122.16458 28.528112 121.77396Q28.215612 121.36771 27.574987 121.13333Q26.918737 120.89896 26.324987 120.89896Q25.653112 120.89896 25.246862 121.27396Q24.824987 121.63333 24.824987 122.10208Q24.824987 122.83646 25.653112 123.32083Q26.465612 123.78958 27.418737 123.78958ZM21.215612 114.72708L21.215612 113.57083Q22.324987 113.10208 23.481237 112.86771Q24.621862 112.63333 25.574987 112.63333Q26.762487 112.63333 27.965612 113.02396Q29.168737 113.39896 30.434362 114.19583Q31.231237 114.69583 32.48124 115.78958L32.48124 117.07083Q31.168737 115.96146 30.012487 115.35208Q28.871862 114.74271 27.512487 114.44583Q26.137487 114.14896 24.840612 114.14896Q23.949987 114.14896 23.121862 114.27396Q22.293737 114.39896 21.215612 114.72708Z" fill-rule="nonzero"/><path fill="#000000" d="M72.45 294.8156Q72.45 293.28436 72.7625 292.3625Q73.075 291.425 73.68437 290.925Q74.30937 290.425 75.24687 290.425Q75.93437 290.425 76.45 290.70624Q76.98125 290.9875 77.325 291.51874Q77.66875 292.03436 77.85625 292.78436Q78.04375 293.53436 78.04375 294.8156Q78.04375 296.33124 77.73125 297.2531Q77.43437 298.175 76.80937 298.6906Q76.2 299.1906 75.24687 299.1906Q74.0125 299.1906 73.29375 298.3Q72.45 297.2375 72.45 294.8156ZM73.52812 294.8156Q73.52812 296.925 74.02812 297.6281Q74.52812 298.33124 75.24687 298.33124Q75.98125 298.33124 76.46562 297.6281Q76.96562 296.925 76.96562 294.8156Q76.96562 292.6906 76.46562 292.0031Q75.98125 291.3 75.23125 291.3Q74.5125 291.3 74.075 291.90936Q73.52812 292.6906 73.52812 294.8156Z" fill-rule="nonzero"/><path fill="#000000" d="M55.41875 257.48334L54.371876 257.48334L54.371876 250.76459Q53.98125 251.12396 53.35625 251.49896Q52.746876 251.85834 52.2625 252.03021L52.2625 251.01459Q53.1375 250.59271 53.79375 250.01459Q54.465626 249.42084 54.746876 248.85834L55.41875 248.85834L55.41875 257.48334ZM58.45 253.24896Q58.45 251.71771 58.7625 250.79584Q59.075 249.85834 59.684376 249.35834Q60.309376 248.85834 61.246876 248.85834Q61.934376 248.85834 62.45 249.13959Q62.98125 249.42084 63.325 249.95209Q63.66875 250.46771 63.85625 251.21771Q64.04375 251.96771 64.04375 253.24896Q64.04375 254.76459 63.73125 255.68646Q63.434376 256.60834 62.809376 257.12396Q62.2 257.62396 61.246876 257.62396Q60.0125 257.62396 59.29375 256.73334Q58.45 255.67084 58.45 253.24896ZM59.528126 253.24896Q59.528126 255.35834 60.028126 256.06146Q60.528126 256.7646 61.246876 256.7646Q61.98125 256.7646 62.465626 256.06146Q62.965626 255.35834 62.965626 253.24896Q62.965626 251.12396 62.465626 250.43646Q61.98125 249.73334 61.23125 249.73334Q60.5125 249.73334 60.075 250.34271Q59.528126 251.12396 59.528126 253.24896ZM65.45 253.24896Q65.45 251.71771 65.7625 250.79584Q66.075 249.85834 66.68437 249.35834Q67.30937 248.85834 68.24687 248.85834Q68.93437 248.85834 69.45 249.13959Q69.98125 249.42084 70.325 249.95209Q70.66875 250.46771 70.85625 251.21771Q71.04375 251.96771 71.04375 253.24896Q71.04375 254.76459 70.73125 255.68646Q70.43437 256.60834 69.80937 257.12396Q69.2 257.62396 68.24687 257.62396Q67.0125 257.62396 66.29375 256.73334Q65.45 255.67084 65.45 253.24896ZM66.52812 253.24896Q66.52812 255.35834 67.02812 256.06146Q67.52812 256.7646 68.24687 256.7646Q68.98125 256.7646 69.46562 256.06146Q69.96562 255.35834 69.96562 253.24896Q69.96562 251.12396 69.46562 250.43646Q68.98125 249.73334 68.23125 249.73334Q67.5125 249.73334 67.075 250.34271Q66.52812 251.12396 66.52812 253.24896ZM72.45 253.24896Q72.45 251.71771 72.7625 250.79584Q73.075 249.85834 73.68437 249.35834Q74.30937 248.85834 75.24687 248.85834Q75.93437 248.85834 76.45 249.13959Q76.98125 249.42084 77.325 249.95209Q77.66875 250.46771 77.85625 251.21771Q78.04375 251.96771 78.04375 253.24896Q78.04375 254.76459 77.73125 255.68646Q77.43437 256.60834 76.80937 257.12396Q76.2 257.62396 75.24687 257.62396Q74.0125 257.62396 73.29375 256.73334Q72.45 255.67084 72.45 253.24896ZM73.52812 253.24896Q73.52812 255.35834 74.02812 256.06146Q74.52812 256.7646 75.24687 256.7646Q75.98125 256.7646 76.46562 256.06146Q76.96562 255.35834 76.96562 253.24896Q76.96562 251.12396 76.46562 250.43646Q75.98125 249.73334 75.23125 249.73334Q74.5125 249.73334 74.075 250.34271Q73.52812 251.12396 73.52812 253.24896Z" fill-rule="nonzero"/><path fill="#000000" d="M56.996876 214.90105L56.996876 215.91667L51.309376 215.91667Q51.309376 215.54167 51.434376 215.1823Q51.653126 214.60417 52.121876 214.04167Q52.60625 213.47917 53.5125 212.7448Q54.91875 211.58855 55.403126 210.91667Q55.903126 210.2448 55.903126 209.65105Q55.903126 209.02605 55.45 208.60417Q54.996876 208.16667 54.278126 208.16667Q53.5125 208.16667 53.059376 208.6198Q52.60625 209.07292 52.590626 209.88542L51.5125 209.77605Q51.621876 208.5573 52.340626 207.9323Q53.075 207.29167 54.309376 207.29167Q55.54375 207.29167 56.2625 207.97917Q56.98125 208.66667 56.98125 209.6823Q56.98125 210.19792 56.7625 210.69792Q56.559376 211.1823 56.059376 211.7448Q55.575 212.29167 54.45 213.2448Q53.496876 214.04167 53.215626 214.33855Q52.95 214.6198 52.778126 214.90105L56.996876 214.90105ZM58.45 211.6823Q58.45 210.15105 58.7625 209.22917Q59.075 208.29167 59.684376 207.79167Q60.309376 207.29167 61.246876 207.29167Q61.934376 207.29167 62.45 207.57292Q62.98125 207.85417 63.325 208.38542Q63.66875 208.90105 63.85625 209.65105Q64.04375 210.40105 64.04375 211.6823Q64.04375 213.19792 63.73125 214.1198Q63.434376 215.04167 62.809376 215.5573Q62.2 216.0573 61.246876 216.0573Q60.0125 216.0573 59.29375 215.16667Q58.45 214.10417 58.45 211.6823ZM59.528126 211.6823Q59.528126 213.79167 60.028126 214.4948Q60.528126 215.19792 61.246876 215.19792Q61.98125 215.19792 62.465626 214.4948Q62.965626 213.79167 62.965626 211.6823Q62.965626 209.5573 62.465626 208.8698Q61.98125 208.16667 61.23125 208.16667Q60.5125 208.16667 60.075 208.77605Q59.528126 209.5573 59.528126 211.6823ZM65.45 211.6823Q65.45 210.15105 65.7625 209.22917Q66.075 208.29167 66.68437 207.79167Q67.30937 207.29167 68.24687 207.29167Q68.93437 207.29167 69.45 207.57292Q69.98125 207.85417 70.325 208.38542Q70.66875 208.90105 70.85625 209.65105Q71.04375 210.40105 71.04375 211.6823Q71.04375 213.19792 70.73125 214.1198Q70.43437 215.04167 69.80937 215.5573Q69.2 216.0573 68.24687 216.0573Q67.0125 216.0573 66.29375 215.16667Q65.45 214.10417 65.45 211.6823ZM66.52812 211.6823Q66.52812 213.79167 67.02812 214.4948Q67.52812 215.19792 68.24687 215.19792Q68.98125 215.19792 69.46562 214.4948Q69.96562 213.79167 69.96562 211.6823Q69.96562 209.5573 69.46562 208.8698Q68.98125 208.16667 68.23125 208.16667Q67.5125 208.16667 67.075 208.77605Q66.52812 209.5573 66.52812 211.6823ZM72.45 211.6823Q72.45 210.15105 72.7625 209.22917Q73.075 208.29167 73.68437 207.79167Q74.30937 207.29167 75.24687 207.29167Q75.93437 207.29167 76.45 207.57292Q76.98125 207.85417 77.325 208.38542Q77.66875 208.90105 77.85625 209.65105Q78.04375 210.40105 78.04375 211.6823Q78.04375 213.19792 77.73125 214.1198Q77.43437 215.04167 76.80937 215.5573Q76.2 216.0573 75.24687 216.0573Q74.0125 216.0573 73.29375 215.16667Q72.45 214.10417 72.45 211.6823ZM73.52812 211.6823Q73.52812 213.79167 74.02812 214.4948Q74.52812 215.19792 75.24687 215.19792Q75.98125 215.19792 76.46562 214.4948Q76.96562 213.79167 76.96562 211.6823Q76.96562 209.5573 76.46562 208.8698Q75.98125 208.16667 75.23125 208.16667Q74.5125 208.16667 74.075 208.77605Q73.52812 209.5573 73.52812 211.6823Z" fill-rule="nonzero"/><path fill="#000000" d="M51.45 172.08438L52.5125 171.94376Q52.684376 172.83438 53.121876 173.24063Q53.559376 173.63126 54.184376 173.63126Q54.934376 173.63126 55.45 173.11563Q55.965626 172.6 55.965626 171.83438Q55.965626 171.11563 55.48125 170.64688Q55.0125 170.1625 54.278126 170.1625Q53.98125 170.1625 53.528126 170.2875L53.653126 169.35Q53.7625 169.36563 53.825 169.36563Q54.496876 169.36563 55.028126 169.02188Q55.575 168.6625 55.575 167.92813Q55.575 167.35 55.184376 166.975Q54.79375 166.58438 54.16875 166.58438Q53.559376 166.58438 53.1375 166.975Q52.73125 167.36563 52.621876 168.13126L51.559376 167.94376Q51.746876 166.89688 52.434376 166.31876Q53.121876 165.725 54.1375 165.725Q54.840626 165.725 55.434376 166.0375Q56.028126 166.33438 56.340626 166.85Q56.653126 167.36563 56.653126 167.95938Q56.653126 168.50626 56.35625 168.975Q56.059376 169.42813 55.48125 169.69376Q56.23125 169.86563 56.653126 170.42813Q57.075 170.975 57.075 171.81876Q57.075 172.94376 56.246876 173.725Q55.434376 174.50626 54.184376 174.50626Q53.059376 174.50626 52.309376 173.83438Q51.559376 173.14688 51.45 172.08438ZM58.45 170.11563Q58.45 168.58438 58.7625 167.6625Q59.075 166.725 59.684376 166.225Q60.309376 165.725 61.246876 165.725Q61.934376 165.725 62.45 166.00626Q62.98125 166.2875 63.325 166.81876Q63.66875 167.33438 63.85625 168.08438Q64.04375 168.83438 64.04375 170.11563Q64.04375 171.63126 63.73125 172.55313Q63.434376 173.475 62.809376 173.99063Q62.2 174.49063 61.246876 174.49063Q60.0125 174.49063 59.29375 173.6Q58.45 172.5375 58.45 170.11563ZM59.528126 170.11563Q59.528126 172.225 60.028126 172.92813Q60.528126 173.63126 61.246876 173.63126Q61.98125 173.63126 62.465626 172.92813Q62.965626 172.225 62.965626 170.11563Q62.965626 167.99063 62.465626 167.30313Q61.98125 166.6 61.23125 166.6Q60.5125 166.6 60.075 167.20938Q59.528126 167.99063 59.528126 170.11563ZM65.45 170.11563Q65.45 168.58438 65.7625 167.6625Q66.075 166.725 66.68437 166.225Q67.30937 165.725 68.24687 165.725Q68.93437 165.725 69.45 166.00626Q69.98125 166.2875 70.325 166.81876Q70.66875 167.33438 70.85625 168.08438Q71.04375 168.83438 71.04375 170.11563Q71.04375 171.63126 70.73125 172.55313Q70.43437 173.475 69.80937 173.99063Q69.2 174.49063 68.24687 174.49063Q67.0125 174.49063 66.29375 173.6Q65.45 172.5375 65.45 170.11563ZM66.52812 170.11563Q66.52812 172.225 67.02812 172.92813Q67.52812 173.63126 68.24687 173.63126Q68.98125 173.63126 69.46562 172.92813Q69.96562 172.225 69.96562 170.11563Q69.96562 167.99063 69.46562 167.30313Q68.98125 166.6 68.23125 166.6Q67.5125 166.6 67.075 167.20938Q66.52812 167.99063 66.52812 170.11563ZM72.45 170.11563Q72.45 168.58438 72.7625 167.6625Q73.075 166.725 73.68437 166.225Q74.30937 165.725 75.24687 165.725Q75.93437 165.725 76.45 166.00626Q76.98125 166.2875 77.325 166.81876Q77.66875 167.33438 77.85625 168.08438Q78.04375 168.83438 78.04375 170.11563Q78.04375 171.63126 77.73125 172.55313Q77.43437 173.475 76.80937 173.99063Q76.2 174.49063 75.24687 174.49063Q74.0125 174.49063 73.29375 173.6Q72.45 172.5375 72.45 170.11563ZM73.52812 170.11563Q73.52812 172.225 74.02812 172.92813Q74.52812 173.63126 75.24687 173.63126Q75.98125 173.63126 76.46562 172.92813Q76.96562 172.225 76.96562 170.11563Q76.96562 167.99063 76.46562 167.30313Q75.98125 166.6 75.23125 166.6Q74.5125 166.6 74.075 167.20938Q73.52812 167.99063 73.52812 170.11563Z" fill-rule="nonzero"/><path fill="#000000" d="M54.825 132.78334L54.825 130.72084L51.10625 130.72084L51.10625 129.75209L55.028126 124.18959L55.8875 124.18959L55.8875 129.75209L57.04375 129.75209L57.04375 130.72084L55.8875 130.72084L55.8875 132.78334L54.825 132.78334ZM54.825 129.75209L54.825 125.892715L52.1375 129.75209L54.825 129.75209ZM58.45 128.54897Q58.45 127.017715 58.7625 126.09584Q59.075 125.15834 59.684376 124.65834Q60.309376 124.15834 61.246876 124.15834Q61.934376 124.15834 62.45 124.43959Q62.98125 124.72084 63.325 125.25209Q63.66875 125.767715 63.85625 126.517715Q64.04375 127.267715 64.04375 128.54897Q64.04375 130.06459 63.73125 130.98647Q63.434376 131.90834 62.809376 132.42397Q62.2 132.92397 61.246876 132.92397Q60.0125 132.92397 59.29375 132.03334Q58.45 130.97084 58.45 128.54897ZM59.528126 128.54897Q59.528126 130.65834 60.028126 131.36147Q60.528126 132.06459 61.246876 132.06459Q61.98125 132.06459 62.465626 131.36147Q62.965626 130.65834 62.965626 128.54897Q62.965626 126.423965 62.465626 125.736465Q61.98125 125.03334 61.23125 125.03334Q60.5125 125.03334 60.075 125.642715Q59.528126 126.423965 59.528126 128.54897ZM65.45 128.54897Q65.45 127.017715 65.7625 126.09584Q66.075 125.15834 66.68437 124.65834Q67.30937 124.15834 68.24687 124.15834Q68.93437 124.15834 69.45 124.43959Q69.98125 124.72084 70.325 125.25209Q70.66875 125.767715 70.85625 126.517715Q71.04375 127.267715 71.04375 128.54897Q71.04375 130.06459 70.73125 130.98647Q70.43437 131.90834 69.80937 132.42397Q69.2 132.92397 68.24687 132.92397Q67.0125 132.92397 66.29375 132.03334Q65.45 130.97084 65.45 128.54897ZM66.52812 128.54897Q66.52812 130.65834 67.02812 131.36147Q67.52812 132.06459 68.24687 132.06459Q68.98125 132.06459 69.46562 131.36147Q69.96562 130.65834 69.96562 128.54897Q69.96562 126.423965 69.46562 125.736465Q68.98125 125.03334 68.23125 125.03334Q67.5125 125.03334 67.075 125.642715Q66.52812 126.423965 66.52812 128.54897ZM72.45 128.54897Q72.45 127.017715 72.7625 126.09584Q73.075 125.15834 73.68437 124.65834Q74.30937 124.15834 75.24687 124.15834Q75.93437 124.15834 76.45 124.43959Q76.98125 124.72084 77.325 125.25209Q77.66875 125.767715 77.85625 126.517715Q78.04375 127.267715 78.04375 128.54897Q78.04375 130.06459 77.73125 130.98647Q77.43437 131.90834 76.80937 132.42397Q76.2 132.92397 75.24687 132.92397Q74.0125 132.92397 73.29375 132.03334Q72.45 130.97084 72.45 128.54897ZM73.52812 128.54897Q73.52812 130.65834 74.02812 131.36147Q74.52812 132.06459 75.24687 132.06459Q75.98125 132.06459 76.46562 131.36147Q76.96562 130.65834 76.96562 128.54897Q76.96562 126.423965 76.46562 125.736465Q75.98125 125.03334 75.23125 125.03334Q74.5125 125.03334 74.075 125.642715Q73.52812 126.423965 73.52812 128.54897Z" fill-rule="nonzero"/><path fill="#000000" d="M51.45 88.96667L52.559376 88.87292Q52.684376 89.68542 53.121876 90.09167Q53.575 90.49792 54.215626 90.49792Q54.965626 90.49792 55.496876 89.91979Q56.028126 89.34167 56.028126 88.40417Q56.028126 87.49792 55.5125 86.98229Q55.0125 86.45104 54.184376 86.45104Q53.684376 86.45104 53.2625 86.68542Q52.85625 86.91979 52.621876 87.27917L51.6375 87.15417L52.465626 82.74792L56.746876 82.74792L56.746876 83.74792L53.309376 83.74792L52.85625 86.06042Q53.621876 85.51354 54.465626 85.51354Q55.590626 85.51354 56.35625 86.29479Q57.1375 87.07604 57.1375 88.31042Q57.1375 89.46667 56.465626 90.32604Q55.6375 91.35729 54.215626 91.35729Q53.04375 91.35729 52.29375 90.70104Q51.559376 90.04479 51.45 88.96667ZM58.45 86.98229Q58.45 85.45104 58.7625 84.52917Q59.075 83.59167 59.684376 83.09167Q60.309376 82.59167 61.246876 82.59167Q61.934376 82.59167 62.45 82.87292Q62.98125 83.15417 63.325 83.68542Q63.66875 84.20104 63.85625 84.95104Q64.04375 85.70104 64.04375 86.98229Q64.04375 88.49792 63.73125 89.41979Q63.434376 90.34167 62.809376 90.85729Q62.2 91.35729 61.246876 91.35729Q60.0125 91.35729 59.29375 90.46667Q58.45 89.40417 58.45 86.98229ZM59.528126 86.98229Q59.528126 89.09167 60.028126 89.79479Q60.528126 90.49792 61.246876 90.49792Q61.98125 90.49792 62.465626 89.79479Q62.965626 89.09167 62.965626 86.98229Q62.965626 84.85729 62.465626 84.16979Q61.98125 83.46667 61.23125 83.46667Q60.5125 83.46667 60.075 84.07604Q59.528126 84.85729 59.528126 86.98229ZM65.45 86.98229Q65.45 85.45104 65.7625 84.52917Q66.075 83.59167 66.68437 83.09167Q67.30937 82.59167 68.24687 82.59167Q68.93437 82.59167 69.45 82.87292Q69.98125 83.15417 70.325 83.68542Q70.66875 84.20104 70.85625 84.95104Q71.04375 85.70104 71.04375 86.98229Q71.04375 88.49792 70.73125 89.41979Q70.43437 90.34167 69.80937 90.85729Q69.2 91.35729 68.24687 91.35729Q67.0125 91.35729 66.29375 90.46667Q65.45 89.40417 65.45 86.98229ZM66.52812 86.98229Q66.52812 89.09167 67.02812 89.79479Q67.52812 90.49792 68.24687 90.49792Q68.98125 90.49792 69.46562 89.79479Q69.96562 89.09167 69.96562 86.98229Q69.96562 84.85729 69.46562 84.16979Q68.98125 83.46667 68.23125 83.46667Q67.5125 83.46667 67.075 84.07604Q66.52812 84.85729 66.52812 86.98229ZM72.45 86.98229Q72.45 85.45104 72.7625 84.52917Q73.075 83.59167 73.68437 83.09167Q74.30937 82.59167 75.24687 82.59167Q75.93437 82.59167 76.45 82.87292Q76.98125 83.15417 77.325 83.68542Q77.66875 84.20104 77.85625 84.95104Q78.04375 85.70104 78.04375 86.98229Q78.04375 88.49792 77.73125 89.41979Q77.43437 90.34167 76.80937 90.85729Q76.2 91.35729 75.24687 91.35729Q74.0125 91.35729 73.29375 90.46667Q72.45 89.40417 72.45 86.98229ZM73.52812 86.98229Q73.52812 89.09167 74.02812 89.79479Q74.52812 90.49792 75.24687 90.49792Q75.98125 90.49792 76.46562 89.79479Q76.96562 89.09167 76.96562 86.98229Q76.96562 84.85729 76.46562 84.16979Q75.98125 83.46667 75.23125 83.46667Q74.5125 83.46667 74.075 84.07604Q73.52812 84.85729 73.52812 86.98229Z" fill-rule="nonzero"/><path fill="#4285f4" d="M272.5 56.583332C272.5 56.031048 272.94772 55.583332 273.5 55.583332L283.5 55.583332C284.05228 55.583332 284.5 56.031048 284.5 56.583332L284.5 66.583336C284.5 67.13562 284.05228 67.583336 283.5 67.583336L273.5 67.583336C272.94772 67.583336 272.5 67.13562 272.5 66.583336Z" fill-rule="nonzero"/><path fill="#ea4335" d="M300.5 56.583332C300.5 56.031048 300.94772 55.583332 301.5 55.583332L311.5 55.583332C312.05228 55.583332 312.5 56.031048 312.5 56.583332L312.5 66.583336C312.5 67.13562 312.05228 67.583336 311.5 67.583336L301.5 67.583336C300.94772 67.583336 300.5 67.13562 300.5 66.583336Z" fill-rule="nonzero"/><path fill="#fbbc04" d="M328.5 56.583332C328.5 56.031048 328.94772 55.583332 329.5 55.583332L339.5 55.583332C340.05228 55.583332 340.5 56.031048 340.5 56.583332L340.5 66.583336C340.5 67.13562 340.05228 67.583336 339.5 67.583336L329.5 67.583336C328.94772 67.583336 328.5 67.13562 328.5 66.583336Z" fill-rule="nonzero"/><path fill="#757575" d="M136.29688 37.95L139.28125 23.6375L142.23438 23.6375L140.95312 29.715626L147.57812 23.6375L151.53125 23.6375L145.09375 29.246876L149.8125 37.95L146.48438 37.95L142.95312 31.1375L140.17188 33.559376L139.25 37.95L136.29688 37.95ZM160.40625 33.6375L153.375 33.6375Q153.35938 33.79375 153.35938 33.8875Q153.35938 34.91875 153.95312 35.559376Q154.54688 36.184376 155.39062 36.184376Q156.78125 36.184376 157.5625 34.746876L160.07812 35.16875Q159.34375 36.684376 158.10938 37.45Q156.89062 38.2 155.375 38.2Q153.28125 38.2 151.96875 36.871876Q150.65625 35.54375 150.65625 33.371876Q150.65625 31.246876 151.84375 29.575Q153.45312 27.340626 156.4375 27.340626Q158.34375 27.340626 159.46875 28.5125Q160.59375 29.684376 160.59375 31.809376Q160.59375 32.825 160.40625 33.6375ZM158.03125 31.91875Q158.04688 31.73125 158.04688 31.6375Q158.04688 30.48125 157.53125 29.91875Q157.01562 29.340626 156.14062 29.340626Q155.26562 29.340626 154.57812 29.996876Q153.89062 30.6375 153.65625 31.91875L158.03125 31.91875ZM163.3125 27.575L165.9375 27.575L165.51562 29.590626Q166.96875 27.340626 168.6875 27.340626Q169.29688 27.340626 169.98438 27.6375L168.90625 29.934376Q168.53125 29.79375 168.09375 29.79375Q167.375 29.79375 166.625 30.340626Q165.875 30.8875 165.45312 31.809376Q165.04688 32.715626 164.625 34.7L163.95312 37.95L161.14062 37.95L163.3125 27.575ZM171.51562 27.575L174.17188 27.575L173.89062 28.91875Q174.89062 28.059376 175.75 27.7Q176.60938 27.340626 177.57812 27.340626Q178.85938 27.340626 179.59375 28.075Q180.32812 28.79375 180.32812 30.0125Q180.32812 30.559376 180.0 32.075L178.78125 37.95L175.98438 37.95L177.21875 32.059376Q177.48438 30.746876 177.48438 30.48125Q177.48438 29.95 177.15625 29.653126Q176.84375 29.340626 176.28125 29.340626Q175.67188 29.340626 174.92188 29.85625Q174.17188 30.371876 173.73438 31.215626Q173.42188 31.825 173.03125 33.684376L172.14062 37.95L169.34375 37.95L171.51562 27.575ZM185.25 30.5125L182.51562 30.278126Q182.98438 28.903126 184.15625 28.121876Q185.32812 27.340626 187.25 27.340626Q189.25 27.340626 190.20312 28.153126Q191.17188 28.95 191.17188 30.10625Q191.17188 30.575 191.07812 31.10625Q191.0 31.6375 190.5 33.871876Q190.09375 35.73125 190.09375 36.48125Q190.09375 37.1375 190.32812 37.95L187.59375 37.95Q187.4375 37.3875 187.39062 36.778126Q186.78125 37.465626 185.96875 37.840626Q185.17188 38.2 184.375 38.2Q183.07812 38.2 182.23438 37.35625Q181.40625 36.496876 181.40625 35.16875Q181.40625 33.684376 182.32812 32.809376Q183.25 31.91875 185.625 31.73125Q187.625 31.559376 188.29688 31.325Q188.46875 30.746876 188.46875 30.3875Q188.46875 29.934376 188.10938 29.6375Q187.75 29.340626 187.03125 29.340626Q186.28125 29.340626 185.84375 29.653126Q185.40625 29.95 185.25 30.5125ZM187.92188 33.121876Q187.67188 33.184376 187.25 33.246876Q185.14062 33.496876 184.5 33.98125Q184.03125 34.340626 184.03125 34.934376Q184.03125 35.41875 184.375 35.7625Q184.73438 36.090626 185.3125 36.090626Q185.95312 36.090626 186.51562 35.79375Q187.07812 35.48125 187.34375 34.996876Q187.625 34.5125 187.84375 33.48125L187.92188 33.121876ZM192.28125 37.95L195.28125 23.6375L198.07812 23.6375L195.07812 37.95L192.28125 37.95ZM198.84375 31.434376L204.28125 31.434376L203.71875 34.1375L198.26562 34.1375L198.84375 31.434376ZM208.3125 23.6375L211.26562 23.6375L209.64062 31.403126L209.23438 33.325Q209.20312 33.559376 209.20312 33.778126Q209.20312 34.621876 209.8125 35.184376Q210.4375 35.73125 211.625 35.73125Q212.6875 35.73125 213.375 35.340626Q214.07812 34.934376 214.45312 34.153126Q214.82812 33.35625 215.21875 31.45L216.85938 23.6375L219.79688 23.6375L218.17188 31.465626Q217.65625 33.934376 216.98438 35.246876Q216.3125 36.559376 214.9375 37.3875Q213.57812 38.2 211.48438 38.2Q208.98438 38.2 207.65625 36.98125Q206.32812 35.746876 206.32812 33.825Q206.32812 33.41875 206.39062 32.95Q206.4375 32.6375 206.73438 31.16875L208.3125 23.6375ZM221.375 27.575L224.03125 27.575L223.8125 28.6375Q224.65625 27.934376 225.39062 27.6375Q226.14062 27.340626 227.0 27.340626Q228.625 27.340626 229.60938 28.465626Q230.60938 29.575 230.60938 31.809376Q230.60938 34.60625 228.90625 36.54375Q227.4375 38.2 225.4375 38.2Q223.375 38.2 222.3125 36.528126L221.20312 41.903126L218.39062 41.903126L221.375 27.575ZM223.07812 33.528126Q223.07812 34.73125 223.65625 35.403126Q224.25 36.075 225.04688 36.075Q225.75 36.075 226.39062 35.575Q227.03125 35.075 227.45312 33.903126Q227.89062 32.73125 227.89062 31.73125Q227.89062 30.575 227.32812 29.965626Q226.76562 29.340626 225.90625 29.340626Q225.10938 29.340626 224.45312 29.91875Q223.79688 30.48125 223.4375 31.590626Q223.07812 32.7 223.07812 33.528126ZM240.875 37.95L238.21875 37.95L238.45312 36.825Q237.70312 37.559376 236.95312 37.8875Q236.21875 38.2 235.29688 38.2Q233.6875 38.2 232.6875 37.10625Q231.6875 35.996876 231.6875 33.840626Q231.6875 31.35625 233.09375 29.35625Q234.5 27.340626 236.8125 27.340626Q238.90625 27.340626 239.9375 28.996876L241.0625 23.6375L243.875 23.6375L240.875 37.95ZM234.40625 33.73125Q234.40625 34.840626 234.96875 35.465626Q235.53125 36.090626 236.34375 36.090626Q237.10938 36.090626 237.76562 35.575Q238.4375 35.04375 238.82812 33.98125Q239.21875 32.903126 239.21875 31.91875Q239.21875 30.79375 238.60938 30.10625Q238.01562 29.403126 237.21875 29.403126Q235.98438 29.403126 235.1875 30.778126Q234.40625 32.1375 234.40625 33.73125ZM247.25 30.5125L244.51562 30.278126Q244.98438 28.903126 246.15625 28.121876Q247.32812 27.340626 249.25 27.340626Q251.25 27.340626 252.20312 28.153126Q253.17188 28.95 253.17188 30.10625Q253.17188 30.575 253.07812 31.10625Q253.0 31.6375 252.5 33.871876Q252.09375 35.73125 252.09375 36.48125Q252.09375 37.1375 252.32812 37.95L249.59375 37.95Q249.4375 37.3875 249.39062 36.778126Q248.78125 37.465626 247.96875 37.840626Q247.17188 38.2 246.375 38.2Q245.07812 38.2 244.23438 37.35625Q243.40625 36.496876 243.40625 35.16875Q243.40625 33.684376 244.32812 32.809376Q245.25 31.91875 247.625 31.73125Q249.625 31.559376 250.29688 31.325Q250.46875 30.746876 250.46875 30.3875Q250.46875 29.934376 250.10938 29.6375Q249.75 29.340626 249.03125 29.340626Q248.28125 29.340626 247.84375 29.653126Q247.40625 29.95 247.25 30.5125ZM249.92188 33.121876Q249.67188 33.184376 249.25 33.246876Q247.14062 33.496876 246.5 33.98125Q246.03125 34.340626 246.03125 34.934376Q246.03125 35.41875 246.375 35.7625Q246.73438 36.090626 247.3125 36.090626Q247.95312 36.090626 248.51562 35.79375Q249.07812 35.48125 249.34375 34.996876Q249.625 34.5125 249.84375 33.48125L249.92188 33.121876ZM255.0 29.653126L255.4375 27.575L256.79688 27.575L257.14062 25.91875L260.35938 23.98125L259.60938 27.575L261.3125 27.575L260.89062 29.653126L259.17188 29.653126L258.25 33.996876Q258.01562 35.184376 258.01562 35.35625Q258.01562 35.66875 258.21875 35.85625Q258.42188 36.028126 258.95312 36.028126Q259.14062 36.028126 259.89062 35.965626L259.45312 38.04375Q258.71875 38.2 257.96875 38.2Q256.48438 38.2 255.79688 37.621876Q255.125 37.04375 255.125 36.028126Q255.125 35.559376 255.5 33.825L256.35938 29.653126L255.0 29.653126ZM271.40625 33.6375L264.375 33.6375Q264.35938 33.79375 264.35938 33.8875Q264.35938 34.91875 264.95312 35.559376Q265.54688 36.184376 266.39062 36.184376Q267.78125 36.184376 268.5625 34.746876L271.07812 35.16875Q270.34375 36.684376 269.10938 37.45Q267.89062 38.2 266.375 38.2Q264.28125 38.2 262.96875 36.871876Q261.65625 35.54375 261.65625 33.371876Q261.65625 31.246876 262.84375 29.575Q264.45312 27.340626 267.4375 27.340626Q269.34375 27.340626 270.46875 28.5125Q271.59375 29.684376 271.59375 31.809376Q271.59375 32.825 271.40625 33.6375ZM269.03125 31.91875Q269.04688 31.73125 269.04688 31.6375Q269.04688 30.48125 268.53125 29.91875Q268.01562 29.340626 267.14062 29.340626Q266.26562 29.340626 265.57812 29.996876Q264.89062 30.6375 264.65625 31.91875L269.03125 31.91875ZM272.84375 31.434376L278.28125 31.434376L277.71875 34.1375L272.26562 34.1375L272.84375 31.434376ZM286.48438 37.95L283.32812 37.95L280.76562 23.6375L283.70312 23.6375L285.51562 34.465626L291.45312 23.6375L294.375 23.6375L286.48438 37.95ZM302.40625 33.6375L295.375 33.6375Q295.35938 33.79375 295.35938 33.8875Q295.35938 34.91875 295.95312 35.559376Q296.54688 36.184376 297.39062 36.184376Q298.78125 36.184376 299.5625 34.746876L302.07812 35.16875Q301.34375 36.684376 300.10938 37.45Q298.89062 38.2 297.375 38.2Q295.28125 38.2 293.96875 36.871876Q292.65625 35.54375 292.65625 33.371876Q292.65625 31.246876 293.84375 29.575Q295.45312 27.340626 298.4375 27.340626Q300.34375 27.340626 301.46875 28.5125Q302.59375 29.684376 302.59375 31.809376Q302.59375 32.825 302.40625 33.6375ZM300.03125 31.91875Q300.04688 31.73125 300.04688 31.6375Q300.04688 30.48125 299.53125 29.91875Q299.01562 29.340626 298.14062 29.340626Q297.26562 29.340626 296.57812 29.996876Q295.89062 30.6375 295.65625 31.91875L300.03125 31.91875ZM303.28125 37.95L306.28125 23.6375L309.07812 23.6375L306.07812 37.95L303.28125 37.95ZM309.71875 33.6375Q309.71875 30.7625 311.34375 29.059376Q312.96875 27.340626 315.60938 27.340626Q317.90625 27.340626 319.1875 28.60625Q320.48438 29.85625 320.48438 31.996876Q320.48438 34.528126 318.875 36.371876Q317.26562 38.2 314.5625 38.2Q313.09375 38.2 311.95312 37.621876Q310.82812 37.028126 310.26562 35.95Q309.71875 34.871876 309.71875 33.6375ZM317.70312 31.6375Q317.70312 30.6375 317.10938 30.04375Q316.53125 29.45 315.625 29.45Q314.71875 29.45 314.01562 30.0125Q313.3125 30.559376 312.92188 31.6375Q312.53125 32.7 312.53125 33.60625Q312.53125 34.715626 313.125 35.371876Q313.73438 36.028126 314.65625 36.028126Q315.8125 36.028126 316.59375 35.04375Q317.70312 33.6375 317.70312 31.6375ZM328.32812 34.04375L331.0625 34.48125Q330.39062 36.29375 329.0625 37.246876Q327.75 38.2 326.01562 38.2Q324.03125 38.2 322.85938 37.0125Q321.70312 35.825 321.70312 33.7625Q321.70312 32.075 322.40625 30.575Q323.10938 29.059376 324.51562 28.2Q325.9375 27.340626 327.625 27.340626Q329.46875 27.340626 330.5625 28.29375Q331.65625 29.246876 331.79688 30.809376L329.125 31.090626Q329.03125 30.23125 328.59375 29.825Q328.15625 29.403126 327.45312 29.403126Q326.64062 29.403126 325.9375 30.0125Q325.23438 30.621876 324.85938 31.825Q324.48438 33.028126 324.48438 34.075Q324.48438 34.996876 324.9375 35.496876Q325.39062 35.996876 326.0625 35.996876Q326.73438 35.996876 327.35938 35.5125Q327.98438 35.0125 328.32812 34.04375ZM335.29688 23.6375L338.09375 23.6375L337.5625 26.16875L334.76562 26.16875L335.29688 23.6375ZM334.46875 27.575L337.26562 27.575L335.10938 37.95L332.29688 37.95L334.46875 27.575ZM339.0 29.653126L339.4375 27.575L340.79688 27.575L341.14062 25.91875L344.35938 23.98125L343.60938 27.575L345.3125 27.575L344.89062 29.653126L343.17188 29.653126L342.25 33.996876Q342.01562 35.184376 342.01562 35.35625Q342.01562 35.66875 342.21875 35.85625Q342.42188 36.028126 342.95312 36.028126Q343.14062 36.028126 343.89062 35.965626L343.45312 38.04375Q342.71875 38.2 341.96875 38.2Q340.48438 38.2 339.79688 37.621876Q339.125 37.04375 339.125 36.028126Q339.125 35.559376 339.5 33.825L340.35938 29.653126L339.0 29.653126ZM346.17188 27.575L348.96875 27.575L349.67188 32.746876Q349.9375 34.73125 349.95312 35.54375Q350.5 33.95 351.46875 32.184376L353.9375 27.575L356.90625 27.575L350.5 38.965626Q349.71875 40.3875 349.26562 40.95Q348.8125 41.5125 348.17188 41.825Q347.53125 42.153126 346.625 42.153126Q345.73438 42.153126 344.625 41.840626L344.875 39.7625Q345.375 39.903126 345.85938 39.903126Q347.14062 39.903126 347.98438 37.95L346.17188 27.575ZM356.84375 31.434376L362.28125 31.434376L361.71875 34.1375L356.26562 34.1375L356.84375 31.434376ZM373.6875 32.79375L376.65625 33.246876Q375.79688 35.653126 374.04688 36.934376Q372.3125 38.2 369.98438 38.2Q367.35938 38.2 365.875 36.621876Q364.39062 35.04375 364.39062 32.028126Q364.39062 29.590626 365.375 27.575Q366.375 25.54375 368.125 24.465626Q369.89062 23.3875 371.96875 23.3875Q374.28125 23.3875 375.71875 24.6375Q377.15625 25.871876 377.40625 28.028126L374.59375 28.29375Q374.35938 27.04375 373.6875 26.496876Q373.01562 25.934376 371.90625 25.934376Q370.6875 25.934376 369.625 26.684376Q368.5625 27.41875 367.92188 28.996876Q367.29688 30.559376 367.29688 32.1375Q367.29688 33.85625 368.125 34.79375Q368.95312 35.73125 370.17188 35.73125Q371.3125 35.73125 372.26562 34.996876Q373.21875 34.246876 373.6875 32.79375ZM381.25 30.5125L378.51562 30.278126Q378.98438 28.903126 380.15625 28.121876Q381.32812 27.340626 383.25 27.340626Q385.25 27.340626 386.20312 28.153126Q387.17188 28.95 387.17188 30.10625Q387.17188 30.575 387.07812 31.10625Q387.0 31.6375 386.5 33.871876Q386.09375 35.73125 386.09375 36.48125Q386.09375 37.1375 386.32812 37.95L383.59375 37.95Q383.4375 37.3875 383.39062 36.778126Q382.78125 37.465626 381.96875 37.840626Q381.17188 38.2 380.375 38.2Q379.07812 38.2 378.23438 37.35625Q377.40625 36.496876 377.40625 35.16875Q377.40625 33.684376 378.32812 32.809376Q379.25 31.91875 381.625 31.73125Q383.625 31.559376 384.29688 31.325Q384.46875 30.746876 384.46875 30.3875Q384.46875 29.934376 384.10938 29.6375Q383.75 29.340626 383.03125 29.340626Q382.28125 29.340626 381.84375 29.653126Q381.40625 29.95 381.25 30.5125ZM383.92188 33.121876Q383.67188 33.184376 383.25 33.246876Q381.14062 33.496876 380.5 33.98125Q380.03125 34.340626 380.03125 34.934376Q380.03125 35.41875 380.375 35.7625Q380.73438 36.090626 381.3125 36.090626Q381.95312 36.090626 382.51562 35.79375Q383.07812 35.48125 383.34375 34.996876Q383.625 34.5125 383.84375 33.48125L383.92188 33.121876ZM390.375 27.575L393.01562 27.575L392.75 28.840626Q394.29688 27.340626 396.0 27.340626Q397.17188 27.340626 397.79688 27.825Q398.4375 28.309376 398.60938 29.16875Q399.15625 28.3875 400.15625 27.871876Q401.15625 27.340626 402.25 27.340626Q403.48438 27.340626 404.17188 28.0125Q404.875 28.66875 404.875 29.7625Q404.875 30.29375 404.59375 31.60625L403.26562 37.95L400.46875 37.95L401.79688 31.60625Q402.04688 30.41875 402.04688 30.2625Q402.04688 29.840626 401.78125 29.590626Q401.53125 29.340626 401.0 29.340626Q399.96875 29.340626 399.14062 30.434376Q398.54688 31.23125 398.125 33.246876L397.14062 37.95L394.34375 37.95L395.64062 31.684376Q395.875 30.590626 395.875 30.278126Q395.875 29.85625 395.59375 29.60625Q395.3125 29.340626 394.82812 29.340626Q394.35938 29.340626 393.875 29.621876Q393.39062 29.8875 393.01562 30.371876Q392.65625 30.840626 392.39062 31.590626Q392.28125 31.95 392.01562 33.184376L391.01562 37.95L388.21875 37.95L390.375 27.575ZM408.375 27.575L411.03125 27.575L410.8125 28.6375Q411.65625 27.934376 412.39062 27.6375Q413.14062 27.340626 414.0 27.340626Q415.625 27.340626 416.60938 28.465626Q417.60938 29.575 417.60938 31.809376Q417.60938 34.60625 415.90625 36.54375Q414.4375 38.2 412.4375 38.2Q410.375 38.2 409.3125 36.528126L408.20312 41.903126L405.39062 41.903126L408.375 27.575ZM410.07812 33.528126Q410.07812 34.73125 410.65625 35.403126Q411.25 36.075 412.04688 36.075Q412.75 36.075 413.39062 35.575Q414.03125 35.075 414.45312 33.903126Q414.89062 32.73125 414.89062 31.73125Q414.89062 30.575 414.32812 29.965626Q413.76562 29.340626 412.90625 29.340626Q412.10938 29.340626 411.45312 29.91875Q410.79688 30.48125 410.4375 31.590626Q410.07812 32.7 410.07812 33.528126ZM422.25 30.5125L419.51562 30.278126Q419.98438 28.903126 421.15625 28.121876Q422.32812 27.340626 424.25 27.340626Q426.25 27.340626 427.20312 28.153126Q428.17188 28.95 428.17188 30.10625Q428.17188 30.575 428.07812 31.10625Q428.0 31.6375 427.5 33.871876Q427.09375 35.73125 427.09375 36.48125Q427.09375 37.1375 427.32812 37.95L424.59375 37.95Q424.4375 37.3875 424.39062 36.778126Q423.78125 37.465626 422.96875 37.840626Q422.17188 38.2 421.375 38.2Q420.07812 38.2 419.23438 37.35625Q418.40625 36.496876 418.40625 35.16875Q418.40625 33.684376 419.32812 32.809376Q420.25 31.91875 422.625 31.73125Q424.625 31.559376 425.29688 31.325Q425.46875 30.746876 425.46875 30.3875Q425.46875 29.934376 425.10938 29.6375Q424.75 29.340626 424.03125 29.340626Q423.28125 29.340626 422.84375 29.653126Q422.40625 29.95 422.25 30.5125ZM424.92188 33.121876Q424.67188 33.184376 424.25 33.246876Q422.14062 33.496876 421.5 33.98125Q421.03125 34.340626 421.03125 34.934376Q421.03125 35.41875 421.375 35.7625Q421.73438 36.090626 422.3125 36.090626Q422.95312 36.090626 423.51562 35.79375Q424.07812 35.48125 424.34375 34.996876Q424.625 34.5125 424.84375 33.48125L424.92188 33.121876ZM431.3125 27.575L433.9375 27.575L433.51562 29.590626Q434.96875 27.340626 436.6875 27.340626Q437.29688 27.340626 437.98438 27.6375L436.90625 29.934376Q436.53125 29.79375 436.09375 29.79375Q435.375 29.79375 434.625 30.340626Q433.875 30.8875 433.45312 31.809376Q433.04688 32.715626 432.625 34.7L431.95312 37.95L429.14062 37.95L431.3125 27.575ZM440.29688 23.6375L443.09375 23.6375L442.5625 26.16875L439.76562 26.16875L440.29688 23.6375ZM439.46875 27.575L442.26562 27.575L440.10938 37.95L437.29688 37.95L439.46875 27.575ZM442.9375 35.04375L445.65625 34.621876Q446.01562 35.48125 446.54688 35.840626Q447.09375 36.184376 448.01562 36.184376Q448.96875 36.184376 449.54688 35.7625Q449.95312 35.465626 449.95312 35.04375Q449.95312 34.7625 449.75 34.54375Q449.53125 34.325 448.57812 34.0125Q446.04688 33.16875 445.4375 32.684376Q444.5 31.91875 444.5 30.7Q444.5 29.465626 445.40625 28.575Q446.6875 27.340626 449.20312 27.340626Q451.21875 27.340626 452.23438 28.075Q453.26562 28.79375 453.53125 30.04375L450.95312 30.496876Q450.75 29.934376 450.28125 29.653126Q449.65625 29.2625 448.78125 29.2625Q447.90625 29.2625 447.51562 29.559376Q447.125 29.85625 447.125 30.23125Q447.125 30.621876 447.51562 30.871876Q447.76562 31.028126 449.09375 31.41875Q451.14062 32.028126 451.84375 32.590626Q452.8125 33.403126 452.8125 34.54375Q452.8125 36.028126 451.5625 37.121876Q450.32812 38.2 448.07812 38.2Q445.82812 38.2 444.59375 37.371876Q443.375 36.54375 442.9375 35.04375ZM454.71875 33.6375Q454.71875 30.7625 456.34375 29.059376Q457.96875 27.340626 460.60938 27.340626Q462.90625 27.340626 464.1875 28.60625Q465.48438 29.85625 465.48438 31.996876Q465.48438 34.528126 463.875 36.371876Q462.26562 38.2 459.5625 38.2Q458.09375 38.2 456.95312 37.621876Q455.82812 37.028126 455.26562 35.95Q454.71875 34.871876 454.71875 33.6375ZM462.70312 31.6375Q462.70312 30.6375 462.10938 30.04375Q461.53125 29.45 460.625 29.45Q459.71875 29.45 459.01562 30.0125Q458.3125 30.559376 457.92188 31.6375Q457.53125 32.7 457.53125 33.60625Q457.53125 34.715626 458.125 35.371876Q458.73438 36.028126 459.65625 36.028126Q460.8125 36.028126 461.59375 35.04375Q462.70312 33.6375 462.70312 31.6375ZM468.51562 27.575L471.17188 27.575L470.89062 28.91875Q471.89062 28.059376 472.75 27.7Q473.60938 27.340626 474.57812 27.340626Q475.85938 27.340626 476.59375 28.075Q477.32812 28.79375 477.32812 30.0125Q477.32812 30.559376 477.0 32.075L475.78125 37.95L472.98438 37.95L474.21875 32.059376Q474.48438 30.746876 474.48438 30.48125Q474.48438 29.95 474.15625 29.653126Q473.84375 29.340626 473.28125 29.340626Q472.67188 29.340626 471.92188 29.85625Q471.17188 30.371876 470.73438 31.215626Q470.42188 31.825 470.03125 33.684376L469.14062 37.95L466.34375 37.95L468.51562 27.575Z" fill-rule="nonzero"/></svg>